<svg version="1.1" id="Layer_1" xmlns="http://www.w3.org/2000/svg" xmlns:xlink="http://www.w3.org/1999/xlink" x="0px" y="0px"
	 width="100%" viewBox="0 0 495 505" enable-background="new 0 0 495 505" xml:space="preserve">
<path fill="#000000" opacity="1.000000" stroke="none" 
	d="
M496.000000,177.000000 
	C496.000000,286.999969 496.000000,396.499939 496.000000,505.999939 
	C331.000061,505.999939 166.000137,505.999939 1.000147,505.999969 
	C1.000098,337.666779 1.000098,169.333542 1.000049,1.000238 
	C165.999863,1.000158 330.999725,1.000158 495.999786,1.000079 
	C496.000000,59.500000 496.000000,118.000000 496.000000,177.000000 
M424.897400,90.473885 
	C424.600220,90.303360 424.303070,90.132835 423.989990,90.008591 
	C423.989990,90.008591 424.036652,89.993881 423.908295,89.472664 
	C423.608734,89.301277 423.309204,89.129890 422.994995,89.004944 
	C422.994995,89.004944 423.038757,88.983582 422.869781,88.406380 
	C422.252411,87.925575 421.635010,87.444771 420.995544,87.003815 
	C420.995544,87.003815 421.038361,86.988312 420.910400,86.468964 
	C420.611023,86.300941 420.311676,86.132919 419.995758,86.005302 
	C419.995758,86.005302 420.034943,85.986107 419.888550,85.481697 
	C419.593872,85.316887 419.299225,85.152084 418.998047,85.001831 
	C418.998047,85.001831 419.012573,84.995270 418.894653,84.481880 
	C418.600006,84.316895 418.305359,84.151917 418.000000,84.000000 
	C418.000000,84.000000 418.012939,83.989182 417.891693,83.475456 
	C417.597809,83.304359 417.303955,83.133263 416.992889,83.003548 
	C416.992889,83.003548 417.033905,82.985542 416.876007,82.402618 
	C416.255157,81.922760 415.634277,81.442894 414.996155,81.007568 
	C414.996155,81.007568 415.040497,80.989876 414.898712,80.483353 
	C414.603882,80.319405 414.309021,80.155449 414.001221,79.998169 
	C414.001221,79.998169 414.008881,79.985298 413.909576,79.467613 
	C413.614075,79.306252 413.318604,79.144890 413.002441,78.997253 
	C413.002441,78.997253 413.016388,78.976860 412.908142,78.460777 
	C412.612915,78.296265 412.317657,78.131752 412.001221,78.001579 
	C412.001221,78.001579 412.030884,77.972847 411.887970,77.456238 
	C411.570709,77.381920 411.253479,77.307594 410.327850,76.908005 
	C398.849609,68.346275 387.371368,59.784542 375.939789,50.516342 
	C374.913940,50.089561 373.888062,49.662781 372.404999,49.105068 
	C372.404999,49.105068 371.943085,48.991760 371.680817,48.437180 
	C370.791565,47.945152 369.902313,47.453125 368.992126,46.999432 
	C368.992126,46.999432 369.032349,46.982712 368.822388,46.341560 
	C367.419983,45.716244 366.017548,45.090927 364.614288,44.357388 
	C364.614288,44.357388 364.506104,44.355637 364.165680,43.749424 
	C361.125305,42.515011 358.084900,41.280598 355.037842,39.973976 
	C355.037842,39.973976 354.965637,39.980518 354.831848,39.534103 
	C354.631866,39.213745 354.359161,39.129974 353.518188,39.117809 
	C353.350037,39.072811 353.181885,39.027809 352.741180,38.320019 
	C351.477753,37.918259 350.214325,37.516499 348.312164,36.793217 
	C347.207275,35.853577 346.250793,34.499081 344.973236,34.042103 
	C337.098419,31.225256 329.151154,28.610815 320.947021,25.346083 
	C320.550079,25.258465 320.153168,25.170847 319.091614,25.044710 
	C318.428101,25.023121 317.764587,25.001532 316.926849,24.439186 
	C316.591766,24.371277 316.256714,24.303370 315.294250,24.168583 
	C314.878174,24.107269 314.462128,24.045956 313.761078,23.423405 
	C313.164764,23.354412 312.568481,23.285419 311.238098,23.126944 
	C310.500946,23.075350 309.763794,23.023756 308.829376,22.439672 
	C307.511017,22.039530 306.192657,21.639389 304.270966,21.150917 
	C303.865631,21.120895 303.460266,21.090876 302.689209,20.391548 
	C301.453461,20.320978 300.217743,20.250408 298.467743,20.137215 
	C298.302216,20.183924 298.136688,20.230631 297.523834,20.115486 
	C297.523834,20.115486 297.078766,19.947504 296.915527,19.436792 
	C296.600983,19.370310 296.286407,19.303829 295.234924,19.183676 
	C294.498108,19.130856 293.761292,19.078037 292.565491,18.336758 
	C290.049103,18.197884 287.532715,18.059010 285.008911,17.980597 
	C285.008911,17.980597 285.065582,17.958242 284.881866,17.480589 
	C284.578949,17.409405 284.276062,17.338221 283.317322,17.197390 
	C282.880188,17.232674 282.443085,17.267960 281.513733,17.160404 
	C281.347046,17.197956 281.180389,17.235506 280.351532,17.144367 
	C279.903900,17.101765 279.456299,17.059164 278.527832,16.369570 
	C273.686523,16.307720 268.845184,16.245871 263.548798,16.052303 
	C263.548798,16.052303 263.084991,15.955647 262.785797,15.409906 
	C262.190765,15.326667 261.595703,15.243427 260.269745,15.005042 
	C254.160049,15.101045 248.050354,15.197046 241.448013,15.168941 
	C241.283722,15.127845 241.119446,15.086747 240.862518,14.591129 
	C240.586411,14.740769 240.310287,14.890409 239.245163,15.136004 
	C238.185715,15.157407 237.126251,15.178810 235.162476,15.000380 
	C227.512512,15.682656 219.817749,16.056324 212.228729,17.158333 
	C207.365372,17.864546 202.658005,19.645016 197.058014,20.995834 
	C194.430161,21.362497 191.802292,21.729158 188.436478,21.908659 
	C186.950638,22.601215 185.464783,23.293772 183.361069,24.098577 
	C182.947662,24.163410 182.534271,24.228245 181.334610,24.108074 
	C178.108887,25.124540 174.818375,25.973148 171.669510,27.188686 
	C161.894684,30.961990 152.135941,34.783752 142.459137,38.799210 
	C140.133575,39.764214 138.149277,41.551628 135.580978,43.088058 
	C135.580978,43.088058 135.155945,43.221935 134.434982,43.063801 
	C131.927597,44.712845 129.420227,46.361893 126.476959,48.143696 
	C126.476959,48.143696 126.035889,48.258060 125.526199,48.171165 
	C125.342133,48.444115 125.158066,48.717064 125.008011,49.004559 
	C125.008011,49.004559 124.993767,48.970341 124.388336,49.029999 
	C123.929443,49.356228 123.470551,49.682461 122.999695,49.998932 
	C122.999695,49.998932 123.005699,50.012226 122.301842,49.993496 
	C120.528450,51.318363 118.755066,52.643230 116.996284,53.995487 
	C116.996284,53.995487 116.972954,53.974876 116.260849,54.010395 
	C113.491341,55.995529 110.721832,57.980663 108.001144,59.994534 
	C108.001144,59.994534 107.973503,59.945026 107.242386,59.971012 
	C105.496040,61.651733 103.749695,63.332451 102.004913,65.004776 
	C102.004913,65.004776 102.013916,65.003571 101.312317,65.043968 
	C99.203758,66.671799 97.095192,68.299637 94.933830,69.918114 
	C94.933830,69.918114 94.936584,69.971664 94.246193,69.959747 
	C93.788132,70.612526 93.330070,71.265297 92.289719,72.202156 
	C90.861366,73.460678 89.433014,74.719200 87.499031,76.115875 
	C87.323418,76.405197 87.147804,76.694527 87.001762,77.000130 
	C87.001762,77.000130 86.979546,76.974144 86.315231,77.040039 
	C85.879753,77.698860 85.444283,78.357681 85.003067,79.002777 
	C85.003067,79.002777 85.016861,79.009796 84.355034,79.061859 
	C83.913765,79.718185 83.472488,80.374504 83.000000,81.000000 
	C83.000000,81.000000 83.031174,81.030350 82.443489,81.166069 
	C81.962067,81.784676 81.480644,82.403290 80.561356,83.202408 
	C80.283165,83.384583 80.102959,83.636765 79.347122,84.028267 
	C78.887115,84.683846 78.427101,85.339424 78.006966,86.013283 
	C78.006966,86.013283 77.997070,85.970558 77.309418,86.016029 
	C76.868141,86.684418 76.426865,87.352814 75.552048,88.211746 
	C75.279808,88.400772 75.103378,88.656021 74.316025,89.041733 
	C72.875778,90.697594 71.435539,92.353455 70.005280,94.007072 
	C70.005280,94.007072 70.008644,93.997864 69.495575,94.121445 
	C69.322891,94.414375 69.150215,94.707306 69.008804,95.009476 
	C69.008804,95.009476 68.997192,94.979034 68.271172,95.021957 
	C66.509186,97.344788 64.747200,99.667610 62.358475,102.270172 
	C59.874641,105.838882 57.390808,109.407593 54.227715,113.068886 
	C52.841911,115.062523 51.456112,117.056160 50.007023,119.019882 
	C50.007023,119.019882 50.048122,119.076576 49.433941,119.267815 
	C48.944267,120.175774 48.454590,121.083725 48.004555,122.014145 
	C48.004555,122.014145 47.998203,121.969032 47.425571,122.101791 
	C47.363987,122.453941 47.302406,122.806091 47.127838,123.594612 
	C47.127838,123.594612 47.027229,124.034004 46.541348,124.161545 
	C46.461033,124.456749 46.380722,124.751945 46.136761,125.535866 
	C46.087223,125.700363 46.037685,125.864853 45.227810,125.956482 
	C42.579773,130.616089 39.931732,135.275696 37.138779,140.436432 
	C37.103931,140.606812 37.069080,140.777176 36.377964,141.231888 
	C35.343456,143.528854 34.308945,145.825806 33.126919,148.491776 
	C33.126919,148.491776 33.022484,148.875229 32.406773,148.937469 
	C32.065960,149.160461 31.725151,149.383453 31.384340,149.606445 
	C31.623129,149.808548 31.861919,150.010651 32.083130,150.575165 
	C32.083130,150.575165 32.021038,150.932663 31.413710,150.954498 
	C31.073374,151.168152 30.733036,151.381790 30.392702,151.595444 
	C30.622524,151.798599 30.852348,152.001770 31.080551,152.556915 
	C31.080551,152.556915 31.044518,152.907074 30.430971,153.088516 
	C29.994301,154.136566 29.557632,155.184601 29.080101,156.648224 
	C29.080101,156.648224 29.029816,157.062775 28.466810,157.272263 
	C28.343315,157.841522 28.219820,158.410797 27.954056,158.987122 
	C27.954056,158.987122 27.961006,159.129395 27.545834,159.177109 
	C27.244980,159.326218 27.144053,159.561249 27.037035,160.631516 
	C24.660748,167.223633 22.358809,173.843689 19.892603,180.401993 
	C14.847296,193.818832 11.958644,207.670197 10.962616,221.965439 
	C10.458880,229.195145 9.348148,236.383545 8.879251,243.614441 
	C8.375538,251.382202 7.458131,259.262878 8.230621,266.942413 
	C9.538007,279.939575 11.430974,292.948090 14.206491,305.706299 
	C16.692537,317.133881 20.481232,328.302124 24.127338,339.443359 
	C25.994051,345.147369 28.806795,350.541748 31.199335,356.538544 
	C31.375669,356.837067 31.636871,356.974670 32.083157,357.332672 
	C32.083157,357.332672 32.233898,357.696991 31.982809,358.462799 
	C32.977318,360.991241 33.628975,363.732666 35.039085,366.002960 
	C37.807804,370.460632 40.998508,374.656219 43.997936,379.009155 
	C43.997936,379.009155 44.046730,378.992065 44.084557,379.603882 
	C44.393436,380.076996 44.702316,380.550110 45.028046,380.981262 
	C45.028046,380.981262 44.982944,380.984253 44.997849,381.718445 
	C49.979691,388.494690 54.961533,395.270905 59.991722,401.998779 
	C59.991722,401.998779 59.936989,402.046478 59.924267,402.747711 
	C61.626507,404.492554 63.328743,406.237396 65.007927,407.992554 
	C65.007927,407.992554 65.020782,407.970642 65.079147,408.669525 
	C67.712234,411.459625 70.345314,414.249756 72.999054,416.995239 
	C72.999054,416.995239 72.955261,417.017670 72.993950,417.722595 
	C75.327400,419.820679 77.660851,421.918732 80.004425,423.996277 
	C80.004425,423.996277 79.982483,424.003082 80.010941,424.694885 
	C80.666885,425.146118 81.322830,425.597351 82.005211,426.002075 
	C82.005211,426.002075 81.952797,426.012604 82.073174,426.542419 
	C82.378052,426.709900 82.682930,426.877380 82.995529,426.994141 
	C82.995529,426.994141 82.955170,427.025909 82.980515,427.740356 
	C85.969566,430.181274 88.958618,432.622192 91.965530,434.996918 
	C91.965530,434.996918 91.930374,435.059692 91.895111,435.797363 
	C97.919525,440.219727 103.943939,444.642090 109.997513,449.008698 
	C109.997513,449.008698 109.945259,449.043610 110.193344,449.681732 
	C115.787727,453.118103 121.382118,456.554474 126.983170,460.000977 
	C126.983170,460.000977 126.980965,460.011871 127.238373,460.660950 
	C135.488770,464.788666 143.739182,468.916351 152.004700,472.998169 
	C152.004700,472.998169 151.963074,473.022705 152.116364,473.477081 
	C152.428314,473.327942 152.740265,473.178802 153.747070,473.242096 
	C162.479065,476.743408 171.054306,480.725708 179.979431,483.634369 
	C193.716339,488.111176 207.941650,490.321747 222.401413,491.089172 
	C226.932709,491.329651 231.421066,492.379120 236.309143,493.642395 
	C237.561981,493.746735 238.828110,494.022949 240.065460,493.927216 
	C247.427277,493.357605 254.782455,492.702026 263.035706,492.013397 
	C266.346100,491.945709 269.656525,491.878052 273.801453,491.950073 
	C283.171234,490.608459 292.546722,489.303894 301.900665,487.859802 
	C302.711700,487.734619 303.380585,486.689026 304.911530,486.013184 
	C312.188141,484.002106 319.464722,481.991028 327.134918,480.559509 
	C331.236755,479.083008 335.452301,477.857513 339.410767,476.064484 
	C344.046326,473.964722 348.458038,471.370697 353.005188,469.010071 
	C353.005188,469.010071 352.993713,468.968811 353.751556,468.951843 
	C357.417511,467.279877 361.279236,465.932434 364.706573,463.864899 
	C370.858887,460.153503 376.750183,456.009460 383.121460,451.432129 
	C387.726685,448.314117 392.331909,445.196106 397.643951,442.051697 
	C399.240814,440.581421 400.837646,439.111176 402.601746,437.625641 
	C402.601746,437.625641 402.641052,437.462402 403.207825,437.164032 
	C403.806458,436.436371 404.405090,435.708679 404.980927,434.980103 
	C404.980927,434.980103 404.980225,435.002899 405.673218,434.964081 
	C407.464355,433.321899 409.255463,431.679718 411.007233,429.998749 
	C411.007233,429.998749 411.018158,430.052826 411.531799,429.908112 
	C411.699738,429.609039 411.867676,429.309967 411.993073,429.001251 
	C411.993073,429.001251 412.020569,429.035187 412.724640,429.001465 
	C415.828949,425.700958 418.933228,422.400421 422.652588,418.815765 
	C426.467621,414.566772 430.282654,410.317780 434.686066,405.760284 
	C439.141022,399.829559 443.595978,393.898834 448.638824,387.582947 
	C449.093231,386.548981 449.423065,385.435822 450.022034,384.493774 
	C454.262573,377.824280 458.829834,371.344757 462.739563,364.489075 
	C465.283539,360.028229 466.301849,354.656128 469.049103,350.360962 
	C474.809753,341.354340 477.640594,331.528687 479.736298,320.800507 
	C480.424316,320.096069 481.583679,319.476837 481.728821,318.674225 
	C483.572693,308.477448 485.270844,298.254303 487.634369,287.511810 
	C488.415253,277.194550 489.293732,266.883087 489.906281,256.555817 
	C490.053680,254.070618 489.319122,251.533096 488.911102,248.192703 
	C488.874786,246.809967 488.838470,245.427216 488.995422,243.120850 
	C488.016022,235.033340 487.036591,226.945816 485.994598,218.019958 
	C485.605377,214.660950 485.216187,211.301956 484.936096,207.139664 
	C483.316345,200.365158 482.120758,193.452744 479.974030,186.849548 
	C477.007324,177.724319 473.323975,168.832077 469.890228,159.534714 
	C469.890228,159.534714 469.809326,159.234787 469.957977,158.602249 
	C469.636597,158.348328 469.315186,158.094406 468.888824,157.417618 
	C468.888824,157.417618 468.765717,156.999649 468.921021,156.285034 
	C467.285492,153.529388 465.649994,150.773727 464.023315,147.969620 
	C464.023315,147.969620 463.975464,147.981293 463.944000,147.224976 
	C462.297211,144.153687 460.650421,141.082382 458.875061,137.565613 
	C458.875061,137.565613 458.776703,137.112488 458.921204,136.533951 
	C458.608215,136.324539 458.295227,136.115128 457.887817,135.584351 
	C457.887817,135.584351 457.761902,135.274002 457.923584,134.580246 
	C456.930054,133.374878 455.936523,132.169525 454.866455,130.575211 
	C454.866455,130.575211 454.757660,130.194031 454.895782,129.612610 
	C454.591614,129.404312 454.287476,129.195999 453.985046,129.026093 
	C453.985046,129.026093 454.019135,129.008377 453.872192,128.310257 
	C451.908478,125.559731 449.944763,122.809212 448.007141,120.008415 
	C448.007141,120.008415 447.950745,120.013535 447.867401,119.508995 
	C447.591217,119.328255 447.315002,119.147522 446.935150,118.537132 
	C446.935150,118.537132 446.800812,118.116074 446.863953,117.509621 
	C446.249847,117.021324 445.635742,116.533035 445.016266,115.952156 
	C445.016266,115.952156 444.923706,115.957375 444.935303,115.308372 
	C444.300018,114.547089 443.664734,113.785805 442.741882,112.417160 
	C441.424286,110.656990 440.106720,108.896820 438.919128,106.577553 
	C438.627075,106.369812 438.335022,106.162071 438.029144,105.997086 
	C438.029144,105.997086 438.056458,105.952484 438.079895,105.216682 
	C437.389069,104.833374 436.698212,104.450066 435.773285,103.555977 
	C435.454987,103.098610 435.136688,102.641251 434.938416,101.549591 
	C434.279388,101.042305 433.620331,100.535019 432.991821,100.012505 
	C432.991821,100.012505 432.970825,100.041023 432.822540,99.427223 
	C431.877045,98.613625 430.931549,97.800034 429.976807,97.017647 
	C429.976807,97.017647 430.009277,97.015686 429.998108,96.323975 
	C428.679138,94.867317 427.360138,93.410667 425.998993,91.991646 
	C425.998993,91.991646 426.054352,91.980675 425.931091,91.450737 
	C425.625214,91.284164 425.319336,91.117592 424.998108,91.002998 
	C424.998108,91.002998 425.048615,90.983406 424.897400,90.473885 
z"/>
<path fill="#0A63D8" opacity="1.000000" stroke="none" 
	d="
M488.802185,244.044479 
	C488.838470,245.427216 488.874786,246.809967 488.748871,248.964386 
	C487.711517,262.489563 486.836365,275.243073 485.792175,288.341644 
	C483.440460,299.502563 481.257721,310.318390 479.075012,321.134216 
	C477.640594,331.528687 474.809753,341.354340 469.049103,350.360962 
	C466.301849,354.656128 465.283539,360.028229 462.739563,364.489075 
	C458.829834,371.344757 454.262573,377.824280 450.022034,384.493774 
	C449.423065,385.435822 449.093231,386.548981 448.008575,387.863464 
	C442.951447,394.118927 438.524597,400.093872 434.097717,406.068817 
	C430.282654,410.317780 426.467621,414.566772 422.015289,419.028564 
	C418.258820,422.505951 415.139679,425.770538 412.020569,429.035156 
	C412.020569,429.035187 411.993073,429.001251 411.799133,429.131042 
	C411.337036,429.471130 411.141357,429.735107 411.018158,430.052826 
	C411.018158,430.052826 411.007233,429.998749 410.669556,430.043152 
	C408.547974,431.726013 406.764099,433.364441 404.980225,435.002899 
	C404.980225,435.002899 404.980927,434.980103 404.663940,435.032166 
	C403.778320,435.876984 403.209686,436.669708 402.641052,437.462402 
	C402.641052,437.462402 402.601746,437.625641 402.170258,437.575012 
	C400.138214,439.042297 398.537659,440.560181 396.937134,442.078064 
	C392.331909,445.196106 387.726685,448.314117 382.584595,451.759644 
	C374.960297,456.018707 367.843109,459.897949 360.800659,463.908417 
	C358.110260,465.440521 355.590973,467.273132 352.993713,468.968811 
	C352.993713,468.968811 353.005188,469.010071 352.603790,469.008545 
	C343.715393,472.664673 335.228363,476.322327 326.741333,479.979980 
	C319.464722,481.991028 312.188141,484.002106 304.078796,486.028320 
	C296.724457,487.052765 290.181488,487.943787 283.689697,489.117798 
	C280.071442,489.772125 276.538361,490.897339 272.966919,491.810364 
	C269.656525,491.878052 266.346100,491.945709 262.110229,492.017761 
	C259.020721,492.000061 256.851349,491.869629 254.693726,491.976379 
	C248.436325,492.285980 242.183609,492.690857 235.929062,493.058289 
	C231.421066,492.379120 226.932709,491.329651 222.401413,491.089172 
	C207.941650,490.321747 193.716339,488.111176 179.979431,483.634369 
	C171.054306,480.725708 162.479065,476.743408 153.127487,473.119080 
	C152.326294,473.004913 152.144684,473.013824 151.963074,473.022705 
	C151.963074,473.022705 152.004700,472.998169 151.871918,472.703522 
	C143.486420,468.276550 135.233688,464.144196 126.980965,460.011871 
	C126.980965,460.011871 126.983170,460.000977 126.856697,459.687744 
	C121.135231,455.930847 115.540245,452.487244 109.945259,449.043610 
	C109.945259,449.043610 109.997513,449.008698 109.897339,448.703064 
	C103.841576,443.951538 97.885979,439.505615 91.930374,435.059692 
	C91.930374,435.059692 91.965530,434.996918 91.883858,434.693970 
	C88.853180,431.935974 85.904175,429.480957 82.955170,427.025909 
	C82.955170,427.025909 82.995529,426.994141 82.865158,426.804993 
	C82.525513,426.348145 82.264847,426.147064 81.952797,426.012604 
	C81.952797,426.012604 82.005211,426.002075 81.895470,425.738831 
	C81.184647,424.984741 80.583565,424.493896 79.982483,424.003082 
	C79.982483,424.003082 80.004425,423.996277 79.962799,423.657318 
	C77.599205,421.218109 75.277237,419.117889 72.955261,417.017670 
	C72.955261,417.017670 72.999054,416.995239 72.964600,416.659424 
	C70.293686,413.539246 67.657242,410.754944 65.020790,407.970642 
	C65.020782,407.970642 65.007927,407.992554 64.987000,407.631958 
	C63.289715,405.529724 61.613354,403.788116 59.936989,402.046478 
	C59.936989,402.046478 59.991722,401.998779 59.955360,401.661682 
	C56.769547,396.549286 53.726776,391.698486 50.423801,387.031799 
	C48.867901,384.833557 46.812180,382.989044 44.982948,380.984253 
	C44.982944,380.984253 45.028046,380.981262 44.970421,380.718201 
	C44.624111,379.967468 44.335423,379.479767 44.046730,378.992065 
	C44.046730,378.992065 43.997936,379.009155 43.995285,378.611938 
	C40.073059,371.375488 36.153481,364.536224 32.233902,357.696991 
	C32.233898,357.696991 32.083157,357.332672 31.927767,356.973969 
	C31.597870,356.415100 31.404404,356.235382 31.191978,356.076080 
	C28.806795,350.541748 25.994051,345.147369 24.127338,339.443359 
	C20.481232,328.302124 16.692537,317.133881 14.206491,305.706299 
	C11.430974,292.948090 9.538007,279.939575 8.230621,266.942413 
	C7.458131,259.262878 8.375538,251.382202 8.879251,243.614441 
	C9.348148,236.383545 10.458880,229.195145 10.962616,221.965439 
	C11.958644,207.670197 14.847296,193.818832 19.892603,180.401993 
	C22.358809,173.843689 24.660748,167.223633 27.281609,160.153885 
	C27.711561,159.526123 27.856503,159.343842 27.961006,159.129395 
	C27.961006,159.129395 27.954056,158.987122 28.204519,158.780762 
	C28.646593,158.070526 28.838203,157.566650 29.029816,157.062775 
	C29.029816,157.062775 29.080101,156.648224 29.368824,156.245331 
	C30.119871,154.863983 30.582197,153.885529 31.044521,152.907074 
	C31.044518,152.907074 31.080551,152.556915 31.258230,152.184311 
	C31.630951,151.518692 31.825994,151.225677 32.021034,150.932663 
	C32.021038,150.932663 32.083130,150.575165 32.269749,150.188354 
	C32.645073,149.492783 32.833778,149.184006 33.022484,148.875229 
	C33.022484,148.875229 33.126919,148.491776 33.511967,148.165070 
	C34.942753,145.541412 35.988491,143.244461 37.034233,140.947525 
	C37.069080,140.777176 37.103931,140.606812 37.514389,140.081146 
	C40.589382,135.160355 43.288761,130.594849 45.988144,126.029350 
	C46.037685,125.864853 46.087223,125.700363 46.379669,125.152687 
	C46.819904,124.558685 46.954788,124.313515 47.027229,124.034004 
	C47.027229,124.034004 47.127838,123.594612 47.339729,123.196442 
	C47.750645,122.548866 47.899506,122.272453 47.998203,121.969032 
	C47.998203,121.969032 48.004555,122.014145 48.275909,121.875549 
	C49.047554,120.850166 49.547840,119.963371 50.048126,119.076576 
	C50.048122,119.076576 50.007023,119.019882 50.348938,118.916580 
	C52.096222,116.867622 53.501595,114.921959 54.906975,112.976295 
	C57.390808,109.407593 59.874641,105.838882 63.007339,102.051178 
	C65.436539,99.547798 67.216866,97.263420 68.997192,94.979034 
	C68.997192,94.979034 69.008804,95.009476 69.203537,94.880615 
	C69.659866,94.547539 69.863327,94.296242 70.008644,93.997864 
	C70.008644,93.997864 70.005280,94.007072 70.331177,93.929626 
	C72.112305,92.227280 73.567528,90.602386 75.022751,88.977493 
	C75.103378,88.656021 75.279808,88.400772 76.046761,88.002029 
	C77.026672,87.185059 77.511871,86.577805 77.997070,85.970558 
	C77.997070,85.970558 78.006966,86.013283 78.269821,85.897125 
	C79.028702,85.173630 79.524719,84.566292 80.020737,83.958961 
	C80.102959,83.636765 80.283165,83.384583 81.054565,82.999146 
	C82.042236,82.207367 82.536705,81.618858 83.031174,81.030350 
	C83.031174,81.030350 83.000000,81.000000 83.298370,80.918320 
	C84.070114,80.227684 84.543488,79.618744 85.016861,79.009796 
	C85.016861,79.009796 85.003067,79.002777 85.282852,78.901733 
	C86.034935,78.191833 86.507240,77.582985 86.979546,76.974144 
	C86.979546,76.974144 87.001762,77.000130 87.200836,76.871002 
	C87.668808,76.540436 87.870384,76.285713 88.004654,75.977715 
	C89.433014,74.719200 90.861366,73.460678 92.862549,71.960846 
	C93.935776,71.136917 94.436180,70.554291 94.936584,69.971664 
	C94.936584,69.971664 94.933830,69.918114 95.323814,69.917786 
	C97.813835,68.279495 99.913872,66.641533 102.013916,65.003571 
	C102.013916,65.003571 102.004913,65.004776 102.349838,64.946854 
	C104.454338,63.240963 106.213921,61.592995 107.973503,59.945026 
	C107.973503,59.945026 108.001144,59.994534 108.353760,59.973099 
	C111.461906,57.959404 114.217430,55.967140 116.972954,53.974876 
	C116.972954,53.974876 116.996284,53.995487 117.343994,53.967888 
	C119.463043,52.630936 121.234375,51.321583 123.005699,50.012230 
	C123.005699,50.012226 122.999695,49.998932 123.289993,49.957680 
	C124.051453,49.601063 124.522614,49.285702 124.993767,48.970341 
	C124.993767,48.970341 125.008011,49.004559 125.193916,48.916721 
	C125.632690,48.677895 125.851379,48.487621 126.035889,48.258060 
	C126.035889,48.258060 126.476959,48.143696 127.069824,48.050144 
	C130.160446,46.378372 132.658188,44.800152 135.155945,43.221935 
	C135.155945,43.221935 135.580978,43.088058 136.167831,43.012871 
	C147.153122,38.621075 157.544891,34.288349 167.952988,29.995117 
	C172.658920,28.053965 177.397232,26.191334 182.120865,24.293076 
	C182.534271,24.228245 182.947662,24.163410 184.043198,24.050714 
	C186.208359,23.367174 187.691406,22.731497 189.174438,22.095818 
	C191.802292,21.729158 194.430161,21.362497 197.903625,20.979061 
	C207.901993,19.735838 217.064163,18.574284 226.202515,17.248680 
	C229.519852,16.767466 232.780365,15.894457 236.066803,15.200213 
	C237.126251,15.178810 238.185715,15.157407 239.869873,15.118967 
	C240.494568,15.101930 240.955154,15.045650 240.955154,15.045650 
	C241.119446,15.086747 241.283722,15.127845 242.076721,15.392832 
	C248.795959,15.731873 254.886505,15.847024 261.328491,15.979952 
	C262.148254,15.983701 262.616638,15.969673 263.084991,15.955647 
	C263.084991,15.955647 263.548798,16.052303 264.140198,16.274349 
	C269.490631,16.669785 274.249634,16.843174 279.008667,17.016563 
	C279.456299,17.059164 279.903900,17.101765 280.790161,17.299656 
	C281.228821,17.454943 281.641357,17.497900 281.641357,17.497900 
	C281.641357,17.497900 282.005951,17.303244 282.005951,17.303244 
	C282.443085,17.267960 282.880188,17.232674 283.800415,17.387699 
	C284.509644,17.775833 284.770325,17.902578 285.065582,17.958242 
	C285.065582,17.958242 285.008911,17.980597 285.301758,18.161610 
	C288.071259,18.570158 290.547852,18.797689 293.024475,19.025219 
	C293.761292,19.078037 294.498108,19.130856 295.769958,19.356709 
	C296.531403,19.727329 296.789337,19.866585 297.078766,19.947504 
	C297.078766,19.947504 297.523834,20.115486 297.883514,20.355597 
	C298.459534,20.777512 298.703064,20.908939 299.262756,21.104256 
	C300.719452,21.165962 301.887177,21.113407 303.054932,21.060854 
	C303.460266,21.090876 303.865631,21.120895 304.773193,21.467083 
	C306.525848,22.179554 307.776245,22.575857 309.026642,22.972160 
	C309.763794,23.023756 310.500946,23.075350 311.844147,23.317568 
	C312.982147,23.667007 313.514099,23.825823 314.046051,23.984638 
	C314.462128,24.045956 314.878174,24.107269 315.782501,24.360664 
	C316.513672,24.760963 316.790436,24.903362 317.101074,24.979942 
	C317.764587,25.001532 318.428101,25.023121 319.536560,25.209023 
	C320.397003,25.558582 320.812500,25.743830 321.227997,25.929077 
	C329.151154,28.610815 337.098419,31.225256 344.973236,34.042103 
	C346.250793,34.499081 347.207275,35.853577 348.840271,37.212936 
	C350.583466,38.082703 351.798615,38.532753 353.013733,38.982803 
	C353.181885,39.027809 353.350037,39.072811 353.895111,39.354305 
	C354.468353,39.782799 354.699554,39.912704 354.965637,39.980518 
	C354.965637,39.980518 355.037842,39.973976 355.241638,40.274406 
	C358.465637,41.835098 361.485870,43.095364 364.506104,44.355633 
	C364.506104,44.355637 364.614288,44.357388 364.666382,44.758339 
	C366.156464,45.767097 367.594391,46.374901 369.032349,46.982708 
	C369.032349,46.982712 368.992126,46.999432 369.126709,47.275002 
	C370.155243,48.030968 371.049164,48.511364 371.943085,48.991760 
	C371.943085,48.991760 372.404999,49.105068 372.800720,49.435257 
	C374.095306,50.251232 374.994232,50.737019 375.893127,51.222809 
	C387.371368,59.784542 398.849609,68.346275 410.788727,77.231430 
	C411.473053,77.763306 411.733490,77.902634 412.030884,77.972847 
	C412.030884,77.972847 412.001221,78.001579 412.128296,78.197021 
	C412.454102,78.658859 412.707764,78.853661 413.016388,78.976860 
	C413.016388,78.976860 413.002441,78.997253 413.128235,79.201202 
	C413.452087,79.668243 413.703705,79.861626 414.008881,79.985298 
	C414.008881,79.985298 414.001221,79.998169 414.130005,80.206749 
	C414.466888,80.678230 414.727448,80.869743 415.040497,80.989876 
	C415.040497,80.989876 414.996155,81.007568 415.117004,81.262444 
	C415.836517,82.006729 416.435211,82.496140 417.033905,82.985550 
	C417.033905,82.985542 416.992889,83.003548 417.119324,83.198166 
	C417.447510,83.661003 417.703247,83.859802 418.012939,83.989182 
	C418.012939,83.989182 418.000000,84.000000 418.124420,84.205017 
	C418.450653,84.674011 418.705231,84.869087 419.012573,84.995270 
	C419.012573,84.995270 418.998047,85.001831 419.126404,85.205017 
	C419.463898,85.669586 419.723969,85.862228 420.034943,85.986107 
	C420.034943,85.986107 419.995758,86.005302 420.129791,86.197502 
	C420.470886,86.655342 420.729065,86.854881 421.038361,86.988312 
	C421.038361,86.988312 420.995544,87.003815 421.109680,87.266571 
	C421.828827,88.014076 422.433777,88.498833 423.038757,88.983582 
	C423.038757,88.983582 422.994995,89.004944 423.128510,89.195480 
	C423.469849,89.652855 423.728058,89.855476 424.036652,89.993881 
	C424.036652,89.993881 423.989990,90.008591 424.126068,90.198608 
	C424.473267,90.654388 424.735413,90.852646 425.048615,90.983406 
	C425.048615,90.983406 424.998108,91.002998 425.136963,91.188316 
	C425.487335,91.637482 425.746857,91.839828 426.054352,91.980675 
	C426.054352,91.980675 425.998993,91.991646 426.044037,92.325775 
	C427.395813,94.111832 428.702545,95.563759 430.009277,97.015686 
	C430.009277,97.015686 429.976807,97.017647 430.028259,97.339188 
	C431.043427,98.454163 432.007111,99.247589 432.970825,100.041023 
	C432.970825,100.041023 432.991821,100.012505 433.064880,100.300613 
	C433.698120,101.120445 434.258240,101.652168 434.818359,102.183891 
	C435.136688,102.641251 435.454987,103.098610 436.000366,104.081726 
	C436.837128,105.055817 437.446777,105.504150 438.056458,105.952484 
	C438.056458,105.952484 438.029144,105.997086 438.122375,106.194168 
	C438.374725,106.664406 438.565887,106.912865 438.789154,107.136642 
	C440.106720,108.896820 441.424286,110.656990 442.947693,113.016663 
	C443.743591,114.396568 444.333649,115.176971 444.923706,115.957382 
	C444.923706,115.957375 445.016266,115.952156 445.114319,116.261673 
	C445.741852,117.086151 446.271332,117.601105 446.800812,118.116074 
	C446.800812,118.116074 446.935150,118.537132 447.099792,118.957481 
	C447.449890,119.636467 447.678650,119.848373 447.950745,120.013535 
	C447.950745,120.013535 448.007141,120.008415 448.030945,120.390381 
	C450.042877,123.517693 452.031006,126.263039 454.019135,129.008392 
	C454.019135,129.008377 453.985046,129.026093 454.078430,129.228210 
	C454.330811,129.712708 454.526123,129.967270 454.757660,130.194031 
	C454.757660,130.194031 454.866455,130.575211 454.934570,131.114319 
	C455.922455,132.860275 456.842194,134.067139 457.761902,135.273987 
	C457.761902,135.274002 457.887817,135.584351 458.027039,135.970886 
	C458.330658,136.640686 458.534149,136.892380 458.776703,137.112488 
	C458.776703,137.112488 458.875061,137.565613 458.977417,138.164871 
	C460.711639,141.836517 462.343536,144.908905 463.975464,147.981293 
	C463.975464,147.981293 464.023315,147.969620 464.052612,148.352905 
	C465.643158,151.490677 467.204437,154.245163 468.765717,156.999634 
	C468.765717,156.999649 468.888824,157.417618 469.046753,157.878113 
	C469.406219,158.637314 469.607788,158.936050 469.809326,159.234787 
	C469.809326,159.234787 469.890228,159.534714 469.933289,160.098602 
	C470.132233,161.647766 470.179016,162.665436 470.460449,163.613434 
	C474.575867,177.474548 478.700531,191.333099 482.906921,205.166718 
	C483.218689,206.191956 484.171936,207.022110 484.826965,207.942947 
	C485.216187,211.301956 485.605377,214.660950 486.020691,218.908203 
	C486.965240,227.879120 487.883728,235.961807 488.802185,244.044479 
M272.438965,326.772888 
	C272.702759,326.568146 272.891510,326.308777 273.004150,326.003845 
	C273.004150,326.003845 272.995056,326.005554 273.676971,325.820648 
	C274.757172,323.864105 275.837372,321.907593 276.956665,319.992340 
	C276.956665,319.992340 276.935059,319.944122 277.581085,319.689789 
	C278.712402,317.055511 279.843719,314.421204 281.050049,311.079376 
	C282.104706,308.713806 283.159363,306.348267 284.759521,303.683258 
	C285.181702,302.765411 285.603851,301.847565 286.168884,300.499664 
	C286.168884,300.499664 286.349548,300.084045 286.918030,299.760254 
	C289.068146,295.705292 293.179993,292.446350 292.175659,286.413879 
	C292.540710,285.626099 292.905762,284.838348 293.857666,283.711792 
	C294.577179,281.777527 295.296722,279.843231 296.148499,277.492615 
	C296.148499,277.492615 296.317596,277.089783 296.905060,276.773804 
	C298.264069,273.500885 299.623108,270.227936 300.994476,267.016113 
	C300.994476,267.016113 300.932312,267.011322 301.334015,266.460358 
	C301.537781,265.580109 301.741547,264.699829 302.283997,263.194946 
	C308.827484,248.161621 315.370972,233.128281 321.914459,218.094940 
	C322.459991,218.186890 323.005524,218.278824 323.551056,218.370773 
	C324.390015,227.233719 325.228943,236.096649 325.853973,245.343506 
	C326.132385,245.927063 326.410767,246.510635 326.777588,247.825012 
	C326.816498,248.559784 326.855408,249.294556 326.504456,250.739151 
	C326.355469,252.539124 325.947662,254.361511 326.101257,256.135284 
	C326.868927,265.001709 327.673431,273.868195 328.701965,282.707092 
	C329.106903,286.187225 330.127747,289.595673 330.966827,293.786041 
	C330.948639,294.540680 330.930450,295.295319 330.508087,296.724426 
	C331.271301,304.168274 332.034515,311.612122 332.869690,319.702881 
	C332.902313,320.135162 332.934937,320.567444 332.581146,321.650299 
	C333.001434,324.118958 333.421722,326.587585 333.943787,329.958801 
	C334.301178,336.514557 334.280243,343.119354 335.122162,349.612305 
	C335.967010,356.127655 336.619598,363.012085 343.313507,367.459991 
	C343.511597,367.671387 343.742981,367.836060 344.072449,367.953766 
	C344.072449,367.953766 344.063568,368.017944 344.453308,368.415924 
	C344.973419,368.610718 345.493500,368.805542 345.992737,369.004913 
	C345.992737,369.004913 345.999603,368.984619 346.295593,369.574188 
	C349.457214,373.184357 353.172058,372.665802 357.962677,371.062134 
	C362.316772,371.039246 366.670898,371.016327 371.697571,371.374664 
	C376.394379,372.524841 380.611145,371.886871 384.379700,367.484558 
	C385.615845,366.586975 387.059814,365.874207 388.051697,364.759308 
	C392.038544,360.278015 392.352570,354.801514 391.928711,348.477386 
	C391.743134,347.361328 391.557587,346.245239 391.209534,344.455414 
	C391.151184,343.997437 391.092804,343.539429 391.380341,342.379486 
	C391.005920,338.898407 390.631500,335.417358 390.143738,331.287750 
	C390.093719,330.852142 390.043701,330.416534 390.360596,329.390686 
	C389.956512,327.604431 389.552429,325.818176 389.031738,323.365204 
	C389.007904,322.914612 388.984100,322.464020 389.381439,321.378632 
	C389.051300,318.578644 388.721161,315.778656 388.222717,312.331635 
	C388.155060,311.891266 388.087372,311.450897 388.363708,310.335175 
	C388.042480,304.055115 387.889862,297.759827 387.324860,291.501770 
	C387.064514,288.617950 385.997223,285.806946 385.139862,282.326599 
	C385.078400,281.894806 385.016937,281.462982 385.318512,280.361786 
	C385.208740,277.909149 385.098969,275.456482 385.014984,272.122681 
	C384.444824,269.054382 383.874664,265.986115 383.196777,262.142456 
	C383.143890,261.100128 383.091003,260.057800 383.385010,258.345520 
	C382.643311,253.879684 381.901581,249.413864 381.040436,244.053711 
	C380.385620,237.026642 379.730804,229.999588 379.461487,222.332199 
	C379.089111,219.854980 378.716736,217.377762 378.199280,214.133484 
	C378.141083,213.094757 378.082855,212.056015 378.341614,210.437988 
	C378.181458,208.637085 378.021301,206.836197 377.716125,204.649933 
	C377.603882,204.395386 377.449432,204.169662 377.128357,203.478912 
	C377.092224,203.313019 377.056122,203.147125 377.409241,202.307678 
	C376.690125,197.190979 375.970978,192.074265 375.117615,186.482788 
	C375.117615,186.482788 375.004700,186.002518 375.034058,185.505341 
	C375.034058,185.505341 375.007019,185.008057 375.077911,184.490463 
	C375.056366,184.317642 375.034821,184.144836 375.387634,183.380920 
	C375.247223,181.597061 375.106812,179.813187 375.012970,177.223114 
	C374.460999,175.131180 373.908997,173.039261 373.205872,170.199692 
	C373.132172,169.185776 373.058441,168.171860 373.308167,166.453720 
	C372.597473,162.962601 371.886780,159.471466 371.043396,155.178162 
	C369.819824,150.228668 369.395050,145.092056 364.996582,141.334091 
	C361.351532,138.219818 358.337341,134.367142 354.722931,130.245361 
	C348.570526,128.160492 342.546722,125.288551 336.222504,124.255402 
	C331.676971,123.512833 326.730438,125.225021 321.180023,125.958763 
	C313.118134,126.998932 308.245453,132.908432 302.184357,138.188354 
	C296.466217,142.365417 294.658600,148.429428 293.727051,155.736069 
	C290.142914,164.045242 286.489624,172.325470 282.995483,180.672318 
	C279.937805,187.976532 277.136078,195.387924 274.075745,202.690979 
	C271.777740,208.174850 269.248901,213.561996 266.191162,219.227524 
	C265.267120,220.523819 264.090332,221.708435 263.460114,223.134598 
	C259.467682,232.169724 255.631439,241.273804 251.656937,250.317001 
	C250.791397,252.286392 250.373489,255.132385 246.515976,253.663345 
	C246.367523,253.131866 246.219086,252.600372 246.300018,251.493439 
	C242.509384,242.122360 238.814240,232.710831 234.873016,223.403503 
	C233.602112,220.402206 231.683853,217.675018 230.066025,214.431366 
	C230.066025,214.431366 229.963135,214.054077 229.750595,213.658051 
	C229.566864,213.420349 229.365723,213.198441 229.029678,212.259705 
	C222.742752,198.724930 215.752899,185.461273 210.394638,171.568329 
	C206.219055,160.741837 202.982605,149.656235 195.762375,140.286316 
	C190.130798,132.978073 183.239960,127.708382 173.540741,125.284294 
	C167.899902,125.126404 162.217438,124.501556 156.635056,124.999275 
	C153.654816,125.264999 150.847366,127.468712 147.278015,128.950348 
	C146.209946,129.320755 145.141891,129.691147 143.322067,130.065964 
	C141.231628,131.726395 139.141190,133.386826 137.017944,135.016006 
	C137.017944,135.016006 137.034119,135.057465 136.318268,135.089890 
	C135.227203,136.407562 134.136154,137.725250 133.003784,138.997742 
	C133.003784,138.997742 133.053329,139.035843 132.395264,139.206741 
	C131.228287,141.056290 130.061310,142.905853 128.845703,145.323318 
	C128.874359,145.511139 128.903015,145.698944 128.965424,145.940842 
	C128.965424,145.940842 128.902664,145.952011 128.280289,146.264465 
	C127.569206,147.336914 126.411720,148.334747 126.217979,149.493683 
	C124.728081,158.406265 123.367897,167.342194 122.133629,176.293808 
	C121.971321,177.470932 122.750031,178.777786 122.992409,180.866272 
	C122.296844,187.537094 121.598015,194.207565 120.906387,200.878784 
	C119.258934,216.769547 117.669067,232.666489 115.950638,248.549561 
	C114.780418,259.365540 113.432205,270.162292 111.779205,281.691284 
	C111.523712,288.133270 111.268211,294.575287 110.971977,301.493134 
	C110.971977,301.493134 110.859650,301.957306 110.299965,302.427399 
	C109.874222,309.296661 109.448479,316.165894 108.969971,323.841339 
	C108.599854,326.212921 108.229736,328.584534 107.296478,331.452118 
	C106.512344,338.234375 105.467247,345.001495 105.073021,351.806335 
	C104.916199,354.513245 106.200378,357.303589 106.949562,360.792511 
	C108.612953,363.286224 110.276344,365.779907 112.221458,368.612549 
	C112.440178,368.820801 112.697159,368.956665 113.447525,369.155243 
	C113.447525,369.155243 113.907753,369.271790 114.420044,369.752563 
	C117.660614,370.163849 120.901176,370.575134 125.049782,371.071075 
	C129.361282,371.117279 133.672791,371.163483 138.227997,371.354584 
	C138.227997,371.354584 138.648682,371.371490 138.648682,371.371490 
	C138.648682,371.371490 139.029404,371.197540 139.679764,371.115997 
	C140.114807,371.145325 140.549835,371.174652 141.699081,371.483093 
	C145.192719,372.116699 148.704147,372.823700 151.584564,369.076874 
	C151.584564,369.076874 152.013153,368.994293 152.725571,368.981873 
	C154.141571,367.965302 155.557571,366.948730 157.098480,365.512848 
	C157.098480,365.512848 157.202408,365.087830 157.514267,364.756073 
	C157.720840,364.526611 157.866882,364.263550 157.984497,363.993866 
	C157.984497,363.993866 157.965698,363.959137 158.387741,363.700165 
	C158.653793,363.491455 158.852661,363.231384 159.086182,362.497498 
	C159.086182,362.497498 159.206558,362.079956 159.517319,361.720917 
	C159.722214,361.472809 159.863495,361.192627 160.320511,360.170929 
	C161.271133,353.104095 162.542648,346.062897 163.110352,338.965424 
	C164.627655,319.996002 165.842819,301.002411 167.760223,281.571259 
	C168.395432,278.396423 169.383896,275.244263 169.589722,272.041840 
	C169.976074,266.030792 169.909912,259.990723 170.144318,253.252304 
	C170.196625,252.535263 170.248932,251.818237 170.869934,250.624939 
	C171.177368,247.403397 171.484802,244.181870 172.193619,240.365479 
	C172.119873,238.563446 172.046143,236.761429 172.087662,234.339035 
	C172.153030,233.923965 172.218399,233.508881 172.827682,232.619812 
	C172.993134,229.420227 173.158585,226.220642 173.237183,222.314392 
	C173.949615,219.963516 175.128555,218.902527 176.761520,221.523880 
	C178.608749,224.489212 180.372513,227.546356 181.786163,230.734894 
	C186.959229,242.402893 191.971527,254.142151 197.029648,266.538971 
	C197.564087,267.672882 198.098526,268.806824 198.826675,270.446533 
	C198.875809,270.620270 198.924927,270.793976 198.990234,271.759888 
	C201.380051,278.006805 203.703613,284.280548 206.213776,290.478729 
	C206.735825,291.767792 207.949112,292.776917 209.010284,293.935120 
	C209.010284,293.935120 209.039261,294.100250 209.022064,294.817535 
	C209.912125,296.593658 210.802185,298.369781 211.825699,300.542145 
	C211.825699,300.542145 211.948639,300.941803 211.962540,301.625122 
	C212.525177,302.768372 213.087830,303.911621 213.865387,305.524872 
	C213.935196,305.682343 214.005020,305.839813 214.289124,306.348145 
	C214.458527,306.564575 214.643555,306.766724 215.142014,307.629547 
	C219.997162,317.036499 223.348206,327.215698 234.373871,332.313110 
	C240.965988,335.360779 247.275558,335.198212 253.838226,334.640411 
	C257.953918,334.290588 261.978760,332.871735 266.581146,331.718994 
	C267.049072,331.123444 267.516998,330.527893 267.986664,329.992249 
	C267.986664,329.992249 267.933868,329.963898 268.592224,329.914032 
	C269.397430,329.273163 270.202637,328.632294 271.008911,328.008881 
	C271.008911,328.008881 270.991547,328.007141 271.416473,327.771790 
	C271.682129,327.572571 271.880707,327.320526 272.000000,327.000000 
	C272.000000,327.000000 272.015778,327.012207 272.438965,326.772888 
z"/>
<path fill="#1A52B0" opacity="1.000000" stroke="none" 
	d="
M181.727737,24.200575 
	C177.397232,26.191334 172.658920,28.053965 167.952988,29.995117 
	C157.544891,34.288349 147.153122,38.621075 136.381363,42.949257 
	C138.149277,41.551628 140.133575,39.764214 142.459137,38.799210 
	C152.135941,34.783752 161.894684,30.961990 171.669510,27.188686 
	C174.818375,25.973148 178.108887,25.124540 181.727737,24.200575 
z"/>
<path fill="#265BB6" opacity="1.000000" stroke="none" 
	d="
M484.881531,207.541306 
	C484.171936,207.022110 483.218689,206.191956 482.906921,205.166718 
	C478.700531,191.333099 474.575867,177.474548 470.460449,163.613434 
	C470.179016,162.665436 470.132233,161.647766 469.961914,160.251282 
	C473.323975,168.832077 477.007324,177.724319 479.974030,186.849548 
	C482.120758,193.452744 483.316345,200.365158 484.881531,207.541306 
z"/>
<path fill="#154EB4" opacity="1.000000" stroke="none" 
	d="
M485.961212,287.996552 
	C486.836365,275.243073 487.711517,262.489563 488.788391,249.377838 
	C489.319122,251.533096 490.053680,254.070618 489.906281,256.555817 
	C489.293732,266.883087 488.415253,277.194550 487.059143,287.763489 
	C486.309692,288.008972 486.135437,288.002777 485.961212,287.996552 
z"/>
<path fill="#1651B3" opacity="1.000000" stroke="none" 
	d="
M485.792175,288.341644 
	C486.135437,288.002777 486.309692,288.008972 486.744995,288.026489 
	C485.270844,298.254303 483.572693,308.477448 481.728821,318.674225 
	C481.583679,319.476837 480.424316,320.096069 479.405640,320.967346 
	C481.257721,310.318390 483.440460,299.502563 485.792175,288.341644 
z"/>
<path fill="#0F4CB1" opacity="1.000000" stroke="none" 
	d="
M235.614639,15.100296 
	C232.780365,15.894457 229.519852,16.767466 226.202515,17.248680 
	C217.064163,18.574284 207.901993,19.735838 198.314972,20.953102 
	C202.658005,19.645016 207.365372,17.864546 212.228729,17.158333 
	C219.817749,16.056324 227.512512,15.682656 235.614639,15.100296 
z"/>
<path fill="#2960B8" opacity="1.000000" stroke="none" 
	d="
M353.372620,468.960327 
	C355.590973,467.273132 358.110260,465.440521 360.800659,463.908417 
	C367.843109,459.897949 374.960297,456.018707 382.399170,452.066711 
	C376.750183,456.009460 370.858887,460.153503 364.706573,463.864899 
	C361.279236,465.932434 357.417511,467.279877 353.372620,468.960327 
z"/>
<path fill="#1351B4" opacity="1.000000" stroke="none" 
	d="
M273.384186,491.880219 
	C276.538361,490.897339 280.071442,489.772125 283.689697,489.117798 
	C290.181488,487.943787 296.724457,487.052765 303.680786,486.057190 
	C303.380585,486.689026 302.711700,487.734619 301.900665,487.859802 
	C292.546722,489.303894 283.171234,490.608459 273.384186,491.880219 
z"/>
<path fill="#2960B8" opacity="1.000000" stroke="none" 
	d="
M326.938110,480.269745 
	C335.228363,476.322327 343.715393,472.664673 352.584595,468.999023 
	C348.458038,471.370697 344.046326,473.964722 339.410767,476.064484 
	C335.452301,477.857513 331.236755,479.083008 326.938110,480.269745 
z"/>
<path fill="#1F55B4" opacity="1.000000" stroke="none" 
	d="
M127.109665,460.336426 
	C135.233688,464.144196 143.486420,468.276550 151.864365,472.726471 
	C143.739182,468.916351 135.488770,464.788666 127.109665,460.336426 
z"/>
<path fill="#265BB6" opacity="1.000000" stroke="none" 
	d="
M44.990398,381.351349 
	C46.812180,382.989044 48.867901,384.833557 50.423801,387.031799 
	C53.726776,391.698486 56.769547,396.549286 59.931187,401.685883 
	C54.961533,395.270905 49.979691,388.494690 44.990398,381.351349 
z"/>
<path fill="#1349A7" opacity="1.000000" stroke="none" 
	d="
M236.119110,493.350342 
	C242.183609,492.690857 248.436325,492.285980 254.693726,491.976379 
	C256.851349,491.869629 259.020721,492.000061 261.662292,492.048706 
	C254.782455,492.702026 247.427277,493.357605 240.065460,493.927216 
	C238.828110,494.022949 237.561981,493.746735 236.119110,493.350342 
z"/>
<path fill="#2257B6" opacity="1.000000" stroke="none" 
	d="
M434.391907,405.914551 
	C438.524597,400.093872 442.951447,394.118927 447.714630,388.056030 
	C443.595978,393.898834 439.141022,399.829559 434.391907,405.914551 
z"/>
<path fill="#265BB6" opacity="1.000000" stroke="none" 
	d="
M91.912750,435.428528 
	C97.885979,439.505615 103.841576,443.951538 109.882767,448.730957 
	C103.943939,444.642090 97.919525,440.219727 91.912750,435.428528 
z"/>
<path fill="#265BB6" opacity="1.000000" stroke="none" 
	d="
M32.108356,358.079895 
	C36.153481,364.536224 40.073059,371.375488 44.003620,378.587463 
	C40.998508,374.656219 37.807804,370.460632 35.039085,366.002960 
	C33.628975,363.732666 32.977318,360.991241 32.108356,358.079895 
z"/>
<path fill="#154EB4" opacity="1.000000" stroke="none" 
	d="
M488.898804,243.582672 
	C487.883728,235.961807 486.965240,227.879120 486.051971,219.327377 
	C487.036591,226.945816 488.016022,235.033340 488.898804,243.582672 
z"/>
<path fill="#265BB6" opacity="1.000000" stroke="none" 
	d="
M110.069305,449.362671 
	C115.540245,452.487244 121.135231,455.930847 126.853363,459.682678 
	C121.382118,456.554474 115.787727,453.118103 110.069305,449.362671 
z"/>
<path fill="#255CBA" opacity="1.000000" stroke="none" 
	d="
M45.607975,125.992920 
	C43.288761,130.594849 40.589382,135.160355 37.586845,139.830566 
	C39.931732,135.275696 42.579773,130.616089 45.607975,125.992920 
z"/>
<path fill="#265BB6" opacity="1.000000" stroke="none" 
	d="
M412.372589,429.018311 
	C415.139679,425.770538 418.258820,422.505951 421.707764,419.170624 
	C418.933228,422.400421 415.828949,425.700958 412.372589,429.018311 
z"/>
<path fill="#114CB0" opacity="1.000000" stroke="none" 
	d="
M278.768250,16.693066 
	C274.249634,16.843174 269.490631,16.669785 264.367737,16.340206 
	C268.845184,16.245871 273.686523,16.307720 278.768250,16.693066 
z"/>
<path fill="#265BB6" opacity="1.000000" stroke="none" 
	d="
M82.967842,427.383118 
	C85.904175,429.480957 88.853180,431.935974 91.874924,434.727081 
	C88.958618,432.622192 85.969566,430.181274 82.967842,427.383118 
z"/>
<path fill="#265BB6" opacity="1.000000" stroke="none" 
	d="
M65.049973,408.320068 
	C67.657242,410.754944 70.293686,413.539246 72.954269,416.681702 
	C70.345314,414.249756 67.712234,411.459625 65.049973,408.320068 
z"/>
<path fill="#265BB6" opacity="1.000000" stroke="none" 
	d="
M463.959717,147.603134 
	C462.343536,144.908905 460.711639,141.836517 459.041687,138.387604 
	C460.650421,141.082382 462.297211,144.153687 463.959717,147.603134 
z"/>
<path fill="#265BB6" opacity="1.000000" stroke="none" 
	d="
M72.974609,417.370117 
	C75.277237,419.117889 77.599205,421.218109 79.957741,423.667572 
	C77.660851,421.918732 75.327400,419.820679 72.974609,417.370117 
z"/>
<path fill="#053DA6" opacity="1.000000" stroke="none" 
	d="
M260.977051,15.962175 
	C254.886505,15.847024 248.795959,15.731873 242.323029,15.454885 
	C248.050354,15.197046 254.160049,15.101045 260.629761,15.283096 
	C260.989746,15.561151 260.977051,15.962175 260.977051,15.962175 
z"/>
<path fill="#1A52B0" opacity="1.000000" stroke="none" 
	d="
M116.616898,53.992638 
	C114.217430,55.967140 111.461906,57.959404 108.329353,59.958733 
	C110.721832,57.980663 113.491341,55.995529 116.616898,53.992638 
z"/>
<path fill="#265BB6" opacity="1.000000" stroke="none" 
	d="
M453.945679,128.659332 
	C452.031006,126.263039 450.042877,123.517693 448.017914,120.415520 
	C449.944763,122.809212 451.908478,125.559731 453.945679,128.659332 
z"/>
<path fill="#1B53B5" opacity="1.000000" stroke="none" 
	d="
M68.634186,95.000496 
	C67.216866,97.263420 65.436539,99.547798 63.320713,101.911316 
	C64.747200,99.667610 66.509186,97.344788 68.634186,95.000496 
z"/>
<path fill="#2257B6" opacity="1.000000" stroke="none" 
	d="
M364.335876,44.052528 
	C361.485870,43.095364 358.465637,41.835098 355.244965,40.310509 
	C358.084900,41.280598 361.125305,42.515011 364.335876,44.052528 
z"/>
<path fill="#1A52B0" opacity="1.000000" stroke="none" 
	d="
M134.795471,43.142868 
	C132.658188,44.800152 130.160446,46.378372 127.287766,47.983765 
	C129.420227,46.361893 131.927597,44.712845 134.795471,43.142868 
z"/>
<path fill="#265BB6" opacity="1.000000" stroke="none" 
	d="
M468.843384,156.642334 
	C467.204437,154.245163 465.643158,151.490677 464.048157,148.377136 
	C465.649994,150.773727 467.285492,153.529388 468.843384,156.642334 
z"/>
<path fill="#255CBA" opacity="1.000000" stroke="none" 
	d="
M36.706097,141.089706 
	C35.988491,143.244461 34.942753,145.541412 33.585724,147.980560 
	C34.308945,145.825806 35.343456,143.528854 36.706097,141.089706 
z"/>
<path fill="#1A52B0" opacity="1.000000" stroke="none" 
	d="
M101.663116,65.023773 
	C99.913872,66.641533 97.813835,68.279495 95.350220,69.922470 
	C97.095192,68.299637 99.203758,66.671799 101.663116,65.023773 
z"/>
<path fill="#1A52B0" opacity="1.000000" stroke="none" 
	d="
M107.607941,59.958019 
	C106.213921,61.592995 104.454338,63.240963 102.349045,64.951050 
	C103.749695,63.332451 105.496040,61.651733 107.607941,59.958019 
z"/>
<path fill="#265BB6" opacity="1.000000" stroke="none" 
	d="
M59.930630,402.397095 
	C61.613354,403.788116 63.289715,405.529724 64.998535,407.626801 
	C63.328743,406.237396 61.626507,404.492554 59.930630,402.397095 
z"/>
<path fill="#265BB6" opacity="1.000000" stroke="none" 
	d="
M405.326721,434.983490 
	C406.764099,433.364441 408.547974,431.726013 410.689209,430.062561 
	C409.255463,431.679718 407.464355,433.321899 405.326721,434.983490 
z"/>
<path fill="#265BB6" opacity="1.000000" stroke="none" 
	d="
M397.290527,442.064880 
	C398.537659,440.560181 400.138214,439.042297 402.086639,437.582642 
	C400.837646,439.111176 399.240814,440.581421 397.290527,442.064880 
z"/>
<path fill="#114CB0" opacity="1.000000" stroke="none" 
	d="
M292.794983,18.680988 
	C290.547852,18.797689 288.071259,18.570158 285.305481,18.131378 
	C287.532715,18.059010 290.049103,18.197884 292.794983,18.680988 
z"/>
<path fill="#1A52B0" opacity="1.000000" stroke="none" 
	d="
M122.653770,50.002861 
	C121.234375,51.321583 119.463043,52.630936 117.336693,53.954193 
	C118.755066,52.643230 120.528450,51.318363 122.653770,50.002861 
z"/>
<path fill="#1B53B5" opacity="1.000000" stroke="none" 
	d="
M74.669388,89.009613 
	C73.567528,90.602386 72.112305,92.227280 70.326187,93.930756 
	C71.435539,92.353455 72.875778,90.697594 74.669388,89.009613 
z"/>
<path fill="#255CBA" opacity="1.000000" stroke="none" 
	d="
M54.567345,113.022591 
	C53.501595,114.921959 52.096222,116.867622 50.380581,118.931541 
	C51.456112,117.056160 52.841911,115.062523 54.567345,113.022591 
z"/>
<path fill="#2257B6" opacity="1.000000" stroke="none" 
	d="
M430.003693,96.669830 
	C428.702545,95.563759 427.395813,94.111832 426.065125,92.306961 
	C427.360138,93.410667 428.679138,94.867317 430.003693,96.669830 
z"/>
<path fill="#2257B6" opacity="1.000000" stroke="none" 
	d="
M368.927368,46.662132 
	C367.594391,46.374901 366.156464,45.767097 364.666809,44.812454 
	C366.017548,45.090927 367.419983,45.716244 368.927368,46.662132 
z"/>
<path fill="#1A52B0" opacity="1.000000" stroke="none" 
	d="
M188.805450,22.002239 
	C187.691406,22.731497 186.208359,23.367174 184.352142,23.994591 
	C185.464783,23.293772 186.950638,22.601215 188.805450,22.002239 
z"/>
<path fill="#2257B6" opacity="1.000000" stroke="none" 
	d="
M352.877441,38.651413 
	C351.798615,38.532753 350.583466,38.082703 349.159607,37.373699 
	C350.214325,37.516499 351.477753,37.918259 352.877441,38.651413 
z"/>
<path fill="#1A52B0" opacity="1.000000" stroke="none" 
	d="
M302.872070,20.726200 
	C301.887177,21.113407 300.719452,21.165962 299.266449,20.901844 
	C298.981201,20.585173 298.981995,20.179838 298.981995,20.179838 
	C300.217743,20.250408 301.453461,20.320978 302.872070,20.726200 
z"/>
<path fill="#265BB6" opacity="1.000000" stroke="none" 
	d="
M457.842773,134.927124 
	C456.842194,134.067139 455.922455,132.860275 454.972839,131.308792 
	C455.936523,132.169525 456.930054,133.374878 457.842773,134.927124 
z"/>
<path fill="#265BB6" opacity="1.000000" stroke="none" 
	d="
M402.924438,437.313232 
	C403.209686,436.669708 403.778320,435.876984 404.675354,435.032623 
	C404.405090,435.708679 403.806458,436.436371 402.924438,437.313232 
z"/>
<path fill="#255CBA" opacity="1.000000" stroke="none" 
	d="
M30.737747,152.997803 
	C30.582197,153.885529 30.119871,154.863983 29.389256,156.037537 
	C29.557632,155.184601 29.994301,154.136566 30.737747,152.997803 
z"/>
<path fill="#1A52B0" opacity="1.000000" stroke="none" 
	d="
M308.928009,22.705915 
	C307.776245,22.575857 306.525848,22.179554 305.074890,21.511250 
	C306.192657,21.639389 307.511017,22.039530 308.928009,22.705915 
z"/>
<path fill="#2257B6" opacity="1.000000" stroke="none" 
	d="
M432.896667,99.734123 
	C432.007111,99.247589 431.043427,98.454163 430.032867,97.323586 
	C430.931549,97.800034 431.877045,98.613625 432.896667,99.734123 
z"/>
<path fill="#255CBA" opacity="1.000000" stroke="none" 
	d="
M49.741035,119.172195 
	C49.547840,119.963371 49.047554,120.850166 48.256092,121.864319 
	C48.454590,121.083725 48.944267,120.175774 49.741035,119.172195 
z"/>
<path fill="#1A52B0" opacity="1.000000" stroke="none" 
	d="
M94.591385,69.965706 
	C94.436180,70.554291 93.935776,71.136917 93.153687,71.818802 
	C93.330070,71.265297 93.788132,70.612526 94.591385,69.965706 
z"/>
<path fill="#1B53B5" opacity="1.000000" stroke="none" 
	d="
M86.647385,77.007095 
	C86.507240,77.582985 86.034935,78.191833 85.285721,78.908592 
	C85.444283,78.357681 85.879753,77.698860 86.647385,77.007095 
z"/>
<path fill="#2257B6" opacity="1.000000" stroke="none" 
	d="
M371.811951,48.714470 
	C371.049164,48.511364 370.155243,48.030968 369.137207,47.255836 
	C369.902313,47.453125 370.791565,47.945152 371.811951,48.714470 
z"/>
<path fill="#2257B6" opacity="1.000000" stroke="none" 
	d="
M375.916443,50.869576 
	C374.994232,50.737019 374.095306,50.251232 373.029297,49.500721 
	C373.888062,49.662781 374.913940,50.089561 375.916443,50.869576 
z"/>
<path fill="#1B53B5" opacity="1.000000" stroke="none" 
	d="
M84.685944,79.035828 
	C84.543488,79.618744 84.070114,80.227684 83.313980,80.933731 
	C83.472488,80.374504 83.913765,79.718185 84.685944,79.035828 
z"/>
<path fill="#265BB6" opacity="1.000000" stroke="none" 
	d="
M444.929504,115.632874 
	C444.333649,115.176971 443.743591,114.396568 443.091492,113.320343 
	C443.664734,113.785805 444.300018,114.547089 444.929504,115.632874 
z"/>
<path fill="#1B53B5" opacity="1.000000" stroke="none" 
	d="
M79.683929,83.993614 
	C79.524719,84.566292 79.028702,85.173630 78.249893,85.887985 
	C78.427101,85.339424 78.887115,84.683846 79.683929,83.993614 
z"/>
<path fill="#265BB6" opacity="1.000000" stroke="none" 
	d="
M79.996719,424.348999 
	C80.583565,424.493896 81.184647,424.984741 81.882248,425.762085 
	C81.322830,425.597351 80.666885,425.146118 79.996719,424.348999 
z"/>
<path fill="#1B53B5" opacity="1.000000" stroke="none" 
	d="
M77.653244,85.993294 
	C77.511871,86.577805 77.026672,87.185059 76.263535,87.906754 
	C76.426865,87.352814 76.868141,86.684418 77.653244,85.993294 
z"/>
<path fill="#2257B6" opacity="1.000000" stroke="none" 
	d="
M438.068176,105.584579 
	C437.446777,105.504150 436.837128,105.055817 436.117432,104.337120 
	C436.698212,104.450066 437.389069,104.833374 438.068176,105.584579 
z"/>
<path fill="#2257B6" opacity="1.000000" stroke="none" 
	d="
M416.954956,82.694084 
	C416.435211,82.496140 415.836517,82.006729 415.125641,81.240173 
	C415.634277,81.442894 416.255157,81.922760 416.954956,82.694084 
z"/>
<path fill="#1B53B5" opacity="1.000000" stroke="none" 
	d="
M82.737335,81.098206 
	C82.536705,81.618858 82.042236,82.207367 81.273499,82.908890 
	C81.480644,82.403290 81.962067,81.784676 82.737335,81.098206 
z"/>
<path fill="#265BB6" opacity="1.000000" stroke="none" 
	d="
M446.832397,117.812843 
	C446.271332,117.601105 445.741852,117.086151 445.117004,116.307968 
	C445.635742,116.533035 446.249847,117.021324 446.832397,117.812843 
z"/>
<path fill="#2257B6" opacity="1.000000" stroke="none" 
	d="
M422.954285,88.694984 
	C422.433777,88.498833 421.828827,88.014076 421.120728,87.246643 
	C421.635010,87.444771 422.252411,87.925575 422.954285,88.694984 
z"/>
<path fill="#2257B6" opacity="1.000000" stroke="none" 
	d="
M434.878387,101.866745 
	C434.258240,101.652168 433.698120,101.120445 433.049622,100.308228 
	C433.620331,100.535019 434.279388,101.042305 434.878387,101.866745 
z"/>
<path fill="#255CBA" opacity="1.000000" stroke="none" 
	d="
M32.714626,148.906342 
	C32.833778,149.184006 32.645073,149.492783 32.278538,150.007156 
	C31.861919,150.010651 31.623129,149.808548 31.384342,149.606445 
	C31.725151,149.383453 32.065960,149.160461 32.714626,148.906342 
z"/>
<path fill="#114CB0" opacity="1.000000" stroke="none" 
	d="
M261.328491,15.979952 
	C260.977051,15.962175 260.989746,15.561151 260.995209,15.360669 
	C261.595703,15.243427 262.190765,15.326667 262.935394,15.682775 
	C262.616638,15.969673 262.148254,15.983701 261.328491,15.979952 
z"/>
<path fill="#1A52B0" opacity="1.000000" stroke="none" 
	d="
M124.691055,49.000168 
	C124.522614,49.285702 124.051453,49.601063 123.295975,49.962559 
	C123.470551,49.682461 123.929443,49.356228 124.691055,49.000168 
z"/>
<path fill="#1A52B0" opacity="1.000000" stroke="none" 
	d="
M313.903564,23.704021 
	C313.514099,23.825823 312.982147,23.667007 312.211182,23.362309 
	C312.568481,23.285419 313.164764,23.354412 313.903564,23.704021 
z"/>
<path fill="#1A52B0" opacity="1.000000" stroke="none" 
	d="
M321.087524,25.637581 
	C320.812500,25.743830 320.397003,25.558582 319.868866,25.228281 
	C320.153168,25.170847 320.550079,25.258465 321.087524,25.637581 
z"/>
<path fill="#255CBA" opacity="1.000000" stroke="none" 
	d="
M28.748312,157.167511 
	C28.838203,157.566650 28.646593,158.070526 28.275654,158.777222 
	C28.219820,158.410797 28.343315,157.841522 28.748312,157.167511 
z"/>
<path fill="#255CBA" opacity="1.000000" stroke="none" 
	d="
M31.717373,150.943573 
	C31.825994,151.225677 31.630951,151.518692 31.259041,152.008316 
	C30.852348,152.001770 30.622524,151.798599 30.392700,151.595444 
	C30.733036,151.381790 31.073374,151.168152 31.717373,150.943573 
z"/>
<path fill="#265BB6" opacity="1.000000" stroke="none" 
	d="
M44.065643,379.297974 
	C44.335423,379.479767 44.624111,379.967468 44.961998,380.739197 
	C44.702316,380.550110 44.393436,380.076996 44.065643,379.297974 
z"/>
<path fill="#265BB6" opacity="1.000000" stroke="none" 
	d="
M469.883667,158.918518 
	C469.607788,158.936050 469.406219,158.637314 469.099243,158.089539 
	C469.315186,158.094406 469.636597,158.348328 469.883667,158.918518 
z"/>
<path fill="#265BB6" opacity="1.000000" stroke="none" 
	d="
M411.274963,429.980469 
	C411.141357,429.735107 411.337036,429.471130 411.820404,429.135864 
	C411.867676,429.309967 411.699738,429.609039 411.274963,429.980469 
z"/>
<path fill="#265BB6" opacity="1.000000" stroke="none" 
	d="
M82.012985,426.277527 
	C82.264847,426.147064 82.525513,426.348145 82.861298,426.830383 
	C82.682930,426.877380 82.378052,426.709900 82.012985,426.277527 
z"/>
<path fill="#1F55B4" opacity="1.000000" stroke="none" 
	d="
M152.039719,473.249878 
	C152.144684,473.013824 152.326294,473.004913 152.780060,473.012878 
	C152.740265,473.178802 152.428314,473.327942 152.039719,473.249878 
z"/>
<path fill="#1B53B5" opacity="1.000000" stroke="none" 
	d="
M87.751846,76.046799 
	C87.870384,76.285713 87.668808,76.540436 87.186058,76.862869 
	C87.147804,76.694527 87.323418,76.405197 87.751846,76.046799 
z"/>
<path fill="#2257B6" opacity="1.000000" stroke="none" 
	d="
M420.974365,86.728638 
	C420.729065,86.854881 420.470886,86.655342 420.138062,86.177299 
	C420.311676,86.132919 420.611023,86.300941 420.974365,86.728638 
z"/>
<path fill="#2257B6" opacity="1.000000" stroke="none" 
	d="
M419.961731,85.733902 
	C419.723969,85.862228 419.463898,85.669586 419.129639,85.197739 
	C419.299225,85.152084 419.593872,85.316887 419.961731,85.733902 
z"/>
<path fill="#2257B6" opacity="1.000000" stroke="none" 
	d="
M418.953613,84.738571 
	C418.705231,84.869087 418.450653,84.674011 418.129761,84.198486 
	C418.305359,84.151917 418.600006,84.316895 418.953613,84.738571 
z"/>
<path fill="#2257B6" opacity="1.000000" stroke="none" 
	d="
M417.952332,83.732315 
	C417.703247,83.859802 417.447510,83.661003 417.127930,83.177475 
	C417.303955,83.133263 417.597809,83.304359 417.952332,83.732315 
z"/>
<path fill="#2257B6" opacity="1.000000" stroke="none" 
	d="
M414.969604,80.736618 
	C414.727448,80.869743 414.466888,80.678230 414.136475,80.203415 
	C414.309021,80.155449 414.603882,80.319405 414.969604,80.736618 
z"/>
<path fill="#2257B6" opacity="1.000000" stroke="none" 
	d="
M413.959229,79.726456 
	C413.703705,79.861626 413.452087,79.668243 413.138550,79.194336 
	C413.318604,79.144890 413.614075,79.306252 413.959229,79.726456 
z"/>
<path fill="#2257B6" opacity="1.000000" stroke="none" 
	d="
M412.962280,78.718819 
	C412.707764,78.853661 412.454102,78.658859 412.138916,78.179848 
	C412.317657,78.131752 412.612915,78.296265 412.962280,78.718819 
z"/>
<path fill="#2257B6" opacity="1.000000" stroke="none" 
	d="
M411.959412,77.714539 
	C411.733490,77.902634 411.473053,77.763306 411.092896,77.394066 
	C411.253479,77.307594 411.570709,77.381920 411.959412,77.714539 
z"/>
<path fill="#2257B6" opacity="1.000000" stroke="none" 
	d="
M423.972473,89.733276 
	C423.728058,89.855476 423.469849,89.652855 423.135864,89.172256 
	C423.309204,89.129890 423.608734,89.301277 423.972473,89.733276 
z"/>
<path fill="#1A52B0" opacity="1.000000" stroke="none" 
	d="
M125.781044,48.214615 
	C125.851379,48.487621 125.632690,48.677895 125.176910,48.909447 
	C125.158066,48.717064 125.342133,48.444115 125.781044,48.214615 
z"/>
<path fill="#2257B6" opacity="1.000000" stroke="none" 
	d="
M354.898743,39.757309 
	C354.699554,39.912704 354.468353,39.782799 354.142853,39.436798 
	C354.359161,39.129974 354.631866,39.213745 354.898743,39.757309 
z"/>
<path fill="#1A52B0" opacity="1.000000" stroke="none" 
	d="
M317.013977,24.709564 
	C316.790436,24.903362 316.513672,24.760963 316.096191,24.394104 
	C316.256714,24.303370 316.591766,24.371277 317.013977,24.709564 
z"/>
<path fill="#114CB0" opacity="1.000000" stroke="none" 
	d="
M298.724854,20.158527 
	C298.981995,20.179838 298.981201,20.585173 298.977509,20.787582 
	C298.703064,20.908939 298.459534,20.777512 298.107178,20.436523 
	C298.136688,20.230631 298.302216,20.183924 298.724854,20.158527 
z"/>
<path fill="#114CB0" opacity="1.000000" stroke="none" 
	d="
M296.997131,19.692148 
	C296.789337,19.866585 296.531403,19.727329 296.138428,19.383545 
	C296.286407,19.303829 296.600983,19.370310 296.997131,19.692148 
z"/>
<path fill="#114CB0" opacity="1.000000" stroke="none" 
	d="
M284.973724,17.719416 
	C284.770325,17.902578 284.509644,17.775833 284.128326,17.422523 
	C284.276062,17.338221 284.578949,17.409405 284.973724,17.719416 
z"/>
<path fill="#114CB0" opacity="1.000000" stroke="none" 
	d="
M281.759827,17.231823 
	C282.005951,17.303244 281.641357,17.497900 281.641357,17.497900 
	C281.641357,17.497900 281.228821,17.454943 281.121277,17.363998 
	C281.180389,17.235506 281.347046,17.197956 281.759827,17.231823 
z"/>
<path fill="#053DA6" opacity="1.000000" stroke="none" 
	d="
M240.908844,14.818390 
	C240.955154,15.045650 240.494568,15.101930 240.264374,15.070990 
	C240.310287,14.890409 240.586411,14.740769 240.908844,14.818390 
z"/>
<path fill="#265BB6" opacity="1.000000" stroke="none" 
	d="
M458.848938,136.823212 
	C458.534149,136.892380 458.330658,136.640686 458.074219,136.131561 
	C458.295227,136.115128 458.608215,136.324539 458.848938,136.823212 
z"/>
<path fill="#255CBA" opacity="1.000000" stroke="none" 
	d="
M27.753420,159.153259 
	C27.856503,159.343842 27.711561,159.526123 27.384617,159.779236 
	C27.144053,159.561249 27.244980,159.326218 27.753420,159.153259 
z"/>
<path fill="#265BB6" opacity="1.000000" stroke="none" 
	d="
M31.195658,356.307312 
	C31.404404,356.235382 31.597870,356.415100 31.877659,356.783264 
	C31.636871,356.974670 31.375669,356.837067 31.195658,356.307312 
z"/>
<path fill="#265BB6" opacity="1.000000" stroke="none" 
	d="
M454.826721,129.903320 
	C454.526123,129.967270 454.330811,129.712708 454.077545,129.209015 
	C454.287476,129.195999 454.591614,129.404312 454.826721,129.903320 
z"/>
<path fill="#255CBA" opacity="1.000000" stroke="none" 
	d="
M46.784286,124.097778 
	C46.954788,124.313515 46.819904,124.558685 46.461491,124.908325 
	C46.380722,124.751945 46.461033,124.456749 46.784286,124.097778 
z"/>
<path fill="#255CBA" opacity="1.000000" stroke="none" 
	d="
M47.711887,122.035416 
	C47.899506,122.272453 47.750645,122.548866 47.396217,122.978256 
	C47.302406,122.806091 47.363987,122.453941 47.711887,122.035416 
z"/>
<path fill="#265BB6" opacity="1.000000" stroke="none" 
	d="
M447.909058,119.761261 
	C447.678650,119.848373 447.449890,119.636467 447.151611,119.172310 
	C447.315002,119.147522 447.591217,119.328255 447.909058,119.761261 
z"/>
<path fill="#2257B6" opacity="1.000000" stroke="none" 
	d="
M438.854126,106.857101 
	C438.565887,106.912865 438.374725,106.664406 438.129303,106.172798 
	C438.335022,106.162071 438.627075,106.369812 438.854126,106.857101 
z"/>
<path fill="#1B53B5" opacity="1.000000" stroke="none" 
	d="
M69.752106,94.059654 
	C69.863327,94.296242 69.659866,94.547539 69.187897,94.875992 
	C69.150215,94.707306 69.322891,94.414375 69.752106,94.059654 
z"/>
<path fill="#2257B6" opacity="1.000000" stroke="none" 
	d="
M425.992737,91.715706 
	C425.746857,91.839828 425.487335,91.637482 425.144623,91.162331 
	C425.319336,91.117592 425.625214,91.284164 425.992737,91.715706 
z"/>
<path fill="#2257B6" opacity="1.000000" stroke="none" 
	d="
M424.973022,90.728645 
	C424.735413,90.852646 424.473267,90.654388 424.134033,90.175476 
	C424.303070,90.132835 424.600220,90.303360 424.973022,90.728645 
z"/>
<path fill="#000000" opacity="1.000000" stroke="none" 
	d="
M113.907753,369.271790 
	C113.907753,369.271790 113.447525,369.155243 113.147011,368.842224 
	C112.544243,368.444031 112.241989,368.358826 111.939735,368.273621 
	C110.276344,365.779907 108.612953,363.286224 106.954102,359.957336 
	C107.258980,349.733490 107.559303,340.344788 107.859619,330.956116 
	C108.229736,328.584534 108.599854,326.212921 109.337860,323.175781 
	C110.090385,315.659241 110.475014,308.808289 110.859650,301.957306 
	C110.859650,301.957306 110.971977,301.493134 111.322495,301.004395 
	C112.000191,297.788574 112.557190,295.065002 112.598900,292.333527 
	C112.656715,288.548004 112.327225,284.756561 112.163574,280.967651 
	C113.432205,270.162292 114.780418,259.365540 115.950638,248.549561 
	C117.669067,232.666489 119.258934,216.769547 120.906387,200.878784 
	C121.598015,194.207565 122.296844,187.537094 123.367371,180.196503 
	C125.462440,168.335175 127.182556,157.143585 128.902664,145.952011 
	C128.902664,145.952011 128.965424,145.940842 129.171417,145.875000 
	C129.702591,145.654724 129.821182,145.403030 129.895935,144.738708 
	C131.056915,142.627502 132.055130,140.831665 133.053329,139.035843 
	C133.053329,139.035843 133.003784,138.997742 133.331970,138.924255 
	C134.784805,137.586319 135.909454,136.321899 137.034119,135.057465 
	C137.034119,135.057465 137.017944,135.016006 137.387939,135.031235 
	C139.863235,133.384827 141.968536,131.723190 144.073822,130.061554 
	C145.141891,129.691147 146.209946,129.320755 148.024017,128.908005 
	C157.191727,127.859467 165.613449,126.853264 174.035172,125.847061 
	C183.239960,127.708382 190.130798,132.978073 195.762375,140.286316 
	C202.982605,149.656235 206.219055,160.741837 210.394638,171.568329 
	C215.752899,185.461273 222.742752,198.724930 229.070953,212.887817 
	C229.395874,213.695312 229.679504,213.874695 229.963135,214.054077 
	C229.963135,214.054077 230.066025,214.431366 229.764954,214.801788 
	C232.607086,222.446854 235.681702,229.752182 238.916885,236.985703 
	C241.188202,242.064087 243.678284,247.044632 246.070648,252.068893 
	C246.219086,252.600372 246.367523,253.131866 246.746231,254.182983 
	C247.511246,255.999756 248.046021,257.296906 249.157166,259.992065 
	C251.922440,253.960495 254.306259,249.048691 256.444489,244.032196 
	C259.987122,235.720993 263.371643,227.342392 266.822815,218.992188 
	C269.248901,213.561996 271.777740,208.174850 274.075745,202.690979 
	C277.136078,195.387924 279.937805,187.976532 282.995483,180.672318 
	C286.489624,172.325470 290.142914,164.045242 294.194946,155.223114 
	C297.383362,149.133698 300.103882,143.557236 302.824432,137.980774 
	C308.245453,132.908432 313.118134,126.998932 322.004852,125.975426 
	C327.014099,125.873184 331.317688,125.077293 335.355957,125.788376 
	C342.008850,126.959869 348.490082,129.106201 355.043671,130.841614 
	C358.337341,134.367142 361.351532,138.219818 364.996582,141.334091 
	C369.395050,145.092056 369.819824,150.228668 371.038330,155.994232 
	C371.683777,160.259521 372.334259,163.708725 372.984741,167.157944 
	C373.058441,168.171860 373.132172,169.185776 373.165405,170.912750 
	C373.460541,173.755783 373.796112,175.885773 374.059998,178.412537 
	C374.329987,180.530243 374.671631,182.251144 375.013306,183.972046 
	C375.034821,184.144836 375.056366,184.317642 374.810699,184.807251 
	C374.697235,185.416870 374.850983,185.709686 375.004700,186.002502 
	C375.004700,186.002518 375.117615,186.482788 375.099518,187.157791 
	C375.727631,192.882278 376.373840,197.931747 377.020081,202.981232 
	C377.056122,203.147125 377.092224,203.313019 377.108826,203.977844 
	C377.104980,204.652618 377.120697,204.828491 377.067871,205.403259 
	C377.341064,207.540527 377.682831,209.278900 378.024628,211.017288 
	C378.082855,212.056015 378.141083,213.094757 378.162292,214.941895 
	C378.442169,218.157715 378.759064,220.565125 379.075958,222.972519 
	C379.730804,229.999588 380.385620,237.026642 381.029358,244.936035 
	C381.691559,250.217392 382.364868,254.616440 383.038147,259.015472 
	C383.091003,260.057800 383.143890,261.100128 383.128540,262.958008 
	C383.420776,266.849792 383.781281,269.926025 384.076965,273.426575 
	C384.326569,276.244354 384.641022,278.637756 384.955475,281.031189 
	C385.016937,281.462982 385.078400,281.894806 385.133087,283.062805 
	C385.325745,286.512543 385.439575,289.235657 385.741730,291.937714 
	C386.453278,298.300659 387.254669,304.653564 388.019714,311.010529 
	C388.087372,311.450897 388.155060,311.891266 388.207275,313.083557 
	C388.447998,316.561432 388.704132,319.287445 388.960297,322.013428 
	C388.984100,322.464020 389.007904,322.914612 389.017761,324.091614 
	C389.333740,326.539001 389.663727,328.259949 389.993713,329.980927 
	C390.043701,330.416534 390.093719,330.852142 390.112091,332.064880 
	C390.398468,336.255188 390.716461,339.668304 391.034424,343.081451 
	C391.092804,343.539429 391.151184,343.997437 391.194397,345.146790 
	C391.431580,346.951569 391.683899,348.064911 391.936249,349.178284 
	C392.352570,354.801514 392.038544,360.278015 388.051697,364.759308 
	C387.059814,365.874207 385.615845,366.586975 383.782898,367.769867 
	C379.132385,369.034607 375.078705,370.014038 371.024994,370.993439 
	C366.670898,371.016327 362.316772,371.039246 357.246307,370.720886 
	C353.019836,369.914642 349.509705,369.449615 345.999603,368.984619 
	C345.999603,368.984619 345.992737,369.004913 345.900635,368.712891 
	C345.226868,368.286530 344.645233,368.152252 344.063568,368.017944 
	C344.063568,368.017944 344.072449,367.953766 343.983398,367.709259 
	C343.602295,367.359589 343.310242,367.254425 343.018188,367.149261 
	C336.619598,363.012085 335.967010,356.127655 335.122162,349.612305 
	C334.280243,343.119354 334.301178,336.514557 333.969299,329.080017 
	C333.652374,325.800720 333.309967,323.400238 332.967529,320.999725 
	C332.934937,320.567444 332.902313,320.135162 332.935425,318.917542 
	C332.304871,310.771423 331.608582,303.410706 330.912292,296.049957 
	C330.930450,295.295319 330.948639,294.540680 330.991425,292.950012 
	C330.667603,286.728790 330.384247,281.338440 329.955750,275.959656 
	C329.294281,267.656982 328.544098,259.361237 327.779907,251.067322 
	C327.745819,250.697266 327.201172,250.374252 326.894318,250.029327 
	C326.855408,249.294556 326.816498,248.559784 326.830627,247.158585 
	C326.611755,245.981293 326.339844,245.470444 326.067902,244.959595 
	C325.228943,236.096649 324.390015,227.233719 323.551056,218.370773 
	C323.005524,218.278824 322.459991,218.186890 321.914459,218.094940 
	C315.370972,233.128281 308.827484,248.161621 301.841888,263.633606 
	C301.243958,265.051941 301.088135,266.031647 300.932312,267.011322 
	C300.932312,267.011322 300.994476,267.016113 300.650146,267.119263 
	C298.976410,270.511505 297.647003,273.800659 296.317596,277.089783 
	C296.317596,277.089783 296.148499,277.492615 295.736694,277.826477 
	C294.640228,280.123749 293.955505,282.087158 293.270813,284.050598 
	C292.905762,284.838348 292.540710,285.626099 291.801178,286.889496 
	C289.734314,291.604767 288.041931,295.844391 286.349548,300.084045 
	C286.349548,300.084045 286.168884,300.499664 285.777344,300.815674 
	C284.995209,302.082001 284.604614,303.032349 284.214020,303.982697 
	C283.159363,306.348267 282.104706,308.713806 280.675354,311.584656 
	C279.178802,314.707977 278.056946,317.326050 276.935059,319.944122 
	C276.935059,319.944122 276.956665,319.992340 276.607574,320.068665 
	C275.170685,322.098480 274.082886,324.052032 272.995056,326.005554 
	C272.995056,326.005554 273.004150,326.003845 272.752502,326.067596 
	C272.339172,326.424957 272.177490,326.718597 272.015778,327.012207 
	C272.015778,327.012207 272.000000,327.000000 271.754333,327.071838 
	C271.336273,327.431458 271.163910,327.719299 270.991547,328.007141 
	C270.991547,328.007141 271.008911,328.008881 270.684509,328.027313 
	C269.551361,328.685150 268.742615,329.324524 267.933899,329.963928 
	C267.933868,329.963898 267.986664,329.992249 267.655701,329.976318 
	C266.897919,330.617767 266.471130,331.275116 266.044342,331.932495 
	C261.978760,332.871735 257.953918,334.290588 253.838226,334.640411 
	C247.275558,335.198212 240.965988,335.360779 234.373871,332.313110 
	C223.348206,327.215698 219.997162,317.036499 215.006958,307.050079 
	C214.704971,306.146606 214.439285,305.988831 214.074829,305.997314 
	C214.005020,305.839813 213.935196,305.682343 213.834839,304.941528 
	C213.185745,303.219360 212.567184,302.080597 211.948639,300.941803 
	C211.948639,300.941803 211.825699,300.542145 211.873871,299.977142 
	C210.961121,297.641510 210.000183,295.870880 209.039246,294.100250 
	C209.039261,294.100250 209.010284,293.935120 208.948303,293.551514 
	C206.785095,287.751007 204.786865,282.290680 202.531525,276.938690 
	C201.640457,274.824158 200.176910,272.950836 198.974030,270.967682 
	C198.924927,270.793976 198.875809,270.620270 198.797729,269.870972 
	C198.193954,268.148499 197.619156,267.001526 197.044357,265.854584 
	C191.971527,254.142151 186.959229,242.402893 181.786163,230.734894 
	C180.372513,227.546356 178.608749,224.489212 176.761520,221.523880 
	C175.128555,218.902527 173.949615,219.963516 173.144409,223.061447 
	C172.795685,226.903610 172.539719,229.998703 172.283752,233.093811 
	C172.218399,233.508881 172.153030,233.923965 171.691589,234.866486 
	C171.230759,237.263138 171.165985,239.132339 171.043961,241.416290 
	C170.758224,244.921097 170.529724,248.011139 170.301239,251.101196 
	C170.248932,251.818237 170.196625,252.535263 169.723389,253.840881 
	C168.594330,263.625763 167.886185,272.822083 167.178040,282.018402 
	C165.842819,301.002411 164.627655,319.996002 163.110352,338.965424 
	C162.542648,346.062897 161.271133,353.104095 159.888763,360.641418 
	C159.373520,361.434601 159.290039,361.757294 159.206558,362.079956 
	C159.206558,362.079956 159.086182,362.497498 158.781097,362.784821 
	C158.305893,363.367798 158.135788,363.663452 157.965698,363.959137 
	C157.965698,363.959137 157.984497,363.993866 157.704773,364.052124 
	C157.350830,364.436188 157.276611,364.762024 157.202408,365.087830 
	C157.202408,365.087830 157.098480,365.512848 156.694626,365.761200 
	C154.864899,367.004456 153.439026,367.999359 152.013153,368.994293 
	C152.013153,368.994293 151.584564,369.076874 150.960968,369.023132 
	C147.219879,369.714233 144.102371,370.459076 140.984879,371.203949 
	C140.549835,371.174652 140.114807,371.145325 139.092438,371.090759 
	C138.331497,371.113617 138.157883,371.161682 137.984283,371.209717 
	C133.672791,371.163483 129.361282,371.117279 124.369545,370.670532 
	C120.428787,369.937286 117.168274,369.604553 113.907753,369.271790 
z"/>
<path fill="#1A52B0" opacity="1.000000" stroke="none" 
	d="
M266.506958,219.109863 
	C263.371643,227.342392 259.987122,235.720993 256.444489,244.032196 
	C254.306259,249.048691 251.922440,253.960495 249.157166,259.992065 
	C248.046021,257.296906 247.511246,255.999756 246.971985,254.344711 
	C250.373489,255.132385 250.791397,252.286392 251.656937,250.317001 
	C255.631439,241.273804 259.467682,232.169724 263.460114,223.134598 
	C264.090332,221.708435 265.267120,220.523819 266.506958,219.109863 
z"/>
<path fill="#114CAE" opacity="1.000000" stroke="none" 
	d="
M326.699402,250.384247 
	C327.201172,250.374252 327.745819,250.697266 327.779907,251.067322 
	C328.544098,259.361237 329.294281,267.656982 329.955750,275.959656 
	C330.384247,281.338440 330.667603,286.728790 330.942078,292.575378 
	C330.127747,289.595673 329.106903,286.187225 328.701965,282.707092 
	C327.673431,273.868195 326.868927,265.001709 326.101257,256.135284 
	C325.947662,254.361511 326.355469,252.539124 326.699402,250.384247 
z"/>
<path fill="#1A52B0" opacity="1.000000" stroke="none" 
	d="
M246.185333,251.781158 
	C243.678284,247.044632 241.188202,242.064087 238.916885,236.985703 
	C235.681702,229.752182 232.607086,222.446854 229.762817,214.997314 
	C231.683853,217.675018 233.602112,220.402206 234.873016,223.403503 
	C238.814240,232.710831 242.509384,242.122360 246.185333,251.781158 
z"/>
<path fill="#144DAF" opacity="1.000000" stroke="none" 
	d="
M128.591476,146.108246 
	C127.182556,157.143585 125.462440,168.335175 123.417618,179.775665 
	C122.750031,178.777786 121.971321,177.470932 122.133629,176.293808 
	C123.367897,167.342194 124.728081,158.406265 126.217979,149.493683 
	C126.411720,148.334747 127.569206,147.336914 128.591476,146.108246 
z"/>
<path fill="#1651B3" opacity="1.000000" stroke="none" 
	d="
M354.883301,130.543488 
	C348.490082,129.106201 342.008850,126.959869 335.355957,125.788376 
	C331.317688,125.077293 327.014099,125.873184 322.396240,125.917130 
	C326.730438,125.225021 331.676971,123.512833 336.222504,124.255402 
	C342.546722,125.288551 348.570526,128.160492 354.883301,130.543488 
z"/>
<path fill="#0F4CB1" opacity="1.000000" stroke="none" 
	d="
M107.578049,331.204102 
	C107.559303,340.344788 107.258980,349.733490 106.893585,359.589050 
	C106.200378,357.303589 104.916199,354.513245 105.073021,351.806335 
	C105.467247,345.001495 106.512344,338.234375 107.578049,331.204102 
z"/>
<path fill="#1451B8" opacity="1.000000" stroke="none" 
	d="
M173.787964,125.565674 
	C165.613449,126.853264 157.191727,127.859467 148.365967,128.831711 
	C150.847366,127.468712 153.654816,125.264999 156.635056,124.999275 
	C162.217438,124.501556 167.899902,125.126404 173.787964,125.565674 
z"/>
<path fill="#0F4CB1" opacity="1.000000" stroke="none" 
	d="
M388.191711,310.672852 
	C387.254669,304.653564 386.453278,298.300659 385.741730,291.937714 
	C385.439575,289.235657 385.325745,286.512543 385.211060,283.380951 
	C385.997223,285.806946 387.064514,288.617950 387.324860,291.501770 
	C387.889862,297.759827 388.042480,304.055115 388.191711,310.672852 
z"/>
<path fill="#154EB4" opacity="1.000000" stroke="none" 
	d="
M167.469131,281.794830 
	C167.886185,272.822083 168.594330,263.625763 169.667206,254.196075 
	C169.909912,259.990723 169.976074,266.030792 169.589722,272.041840 
	C169.383896,275.244263 168.395432,278.396423 167.469131,281.794830 
z"/>
<path fill="#255CBA" opacity="1.000000" stroke="none" 
	d="
M198.982132,271.363770 
	C200.176910,272.950836 201.640457,274.824158 202.531525,276.938690 
	C204.786865,282.290680 206.785095,287.751007 208.865082,293.541504 
	C207.949112,292.776917 206.735825,291.767792 206.213776,290.478729 
	C203.703613,284.280548 201.380051,278.006805 198.982132,271.363770 
z"/>
<path fill="#144DAF" opacity="1.000000" stroke="none" 
	d="
M330.710205,296.387207 
	C331.608582,303.410706 332.304871,310.771423 332.899445,318.594055 
	C332.034515,311.612122 331.271301,304.168274 330.710205,296.387207 
z"/>
<path fill="#1B53B5" opacity="1.000000" stroke="none" 
	d="
M302.504395,138.084564 
	C300.103882,143.557236 297.383362,149.133698 294.351318,154.888626 
	C294.658600,148.429428 296.466217,142.365417 302.504395,138.084564 
z"/>
<path fill="#144DAF" opacity="1.000000" stroke="none" 
	d="
M111.971390,281.329468 
	C112.327225,284.756561 112.656715,288.548004 112.598900,292.333527 
	C112.557190,295.065002 112.000191,297.788574 111.342865,300.766479 
	C111.268211,294.575287 111.523712,288.133270 111.971390,281.329468 
z"/>
<path fill="#114CB0" opacity="1.000000" stroke="none" 
	d="
M110.579803,302.192352 
	C110.475014,308.808289 110.090385,315.659241 109.364243,322.772705 
	C109.448479,316.165894 109.874222,309.296661 110.579803,302.192352 
z"/>
<path fill="#1351B4" opacity="1.000000" stroke="none" 
	d="
M377.214661,202.644455 
	C376.373840,197.931747 375.727631,192.882278 375.166626,187.395172 
	C375.970978,192.074265 376.690125,197.190979 377.214661,202.644455 
z"/>
<path fill="#1F55B4" opacity="1.000000" stroke="none" 
	d="
M286.633789,299.922150 
	C288.041931,295.844391 289.734314,291.604767 291.747437,287.216461 
	C293.179993,292.446350 289.068146,295.705292 286.633789,299.922150 
z"/>
<path fill="#1955B3" opacity="1.000000" stroke="none" 
	d="
M371.361267,371.184082 
	C375.078705,370.014038 379.132385,369.034607 383.581421,368.066711 
	C380.611145,371.886871 376.394379,372.524841 371.361267,371.184082 
z"/>
<path fill="#1955B3" opacity="1.000000" stroke="none" 
	d="
M346.147583,369.279388 
	C349.509705,369.449615 353.019836,369.914642 356.784363,370.696716 
	C353.172058,372.665802 349.457214,373.184357 346.147583,369.279388 
z"/>
<path fill="#114CB0" opacity="1.000000" stroke="none" 
	d="
M383.211578,258.680481 
	C382.364868,254.616440 381.691559,250.217392 381.089081,245.383194 
	C381.901581,249.413864 382.643311,253.879684 383.211578,258.680481 
z"/>
<path fill="#1B53B5" opacity="1.000000" stroke="none" 
	d="
M373.146484,166.805832 
	C372.334259,163.708725 371.683777,160.259521 371.104675,156.395325 
	C371.886780,159.471466 372.597473,162.962601 373.146484,166.805832 
z"/>
<path fill="#1F55B4" opacity="1.000000" stroke="none" 
	d="
M296.611328,276.931793 
	C297.647003,273.800659 298.976410,270.511505 300.643982,267.088684 
	C299.623108,270.227936 298.264069,273.500885 296.611328,276.931793 
z"/>
<path fill="#1955B3" opacity="1.000000" stroke="none" 
	d="
M141.341980,371.343506 
	C144.102371,370.459076 147.219879,369.714233 150.749985,369.078857 
	C148.704147,372.823700 145.192719,372.116699 141.341980,371.343506 
z"/>
<path fill="#1955B3" opacity="1.000000" stroke="none" 
	d="
M391.207397,342.730469 
	C390.716461,339.668304 390.398468,336.255188 390.168762,332.389160 
	C390.631500,335.417358 391.005920,338.898407 391.207397,342.730469 
z"/>
<path fill="#114CAE" opacity="1.000000" stroke="none" 
	d="
M172.555725,232.856812 
	C172.539719,229.998703 172.795685,226.903610 173.187836,223.414780 
	C173.158585,226.220642 172.993134,229.420227 172.555725,232.856812 
z"/>
<path fill="#114CB0" opacity="1.000000" stroke="none" 
	d="
M384.141785,273.002228 
	C383.781281,269.926025 383.420776,266.849792 383.182373,263.345703 
	C383.874664,265.986115 384.444824,269.054382 384.790283,272.562714 
	C384.565582,273.002747 384.141754,273.002228 384.141785,273.002228 
z"/>
<path fill="#1955B3" opacity="1.000000" stroke="none" 
	d="
M114.163895,369.512177 
	C117.168274,369.604553 120.428787,369.937286 123.915527,370.628235 
	C120.901176,370.575134 117.660614,370.163849 114.163895,369.512177 
z"/>
<path fill="#154EB4" opacity="1.000000" stroke="none" 
	d="
M170.585571,250.863068 
	C170.529724,248.011139 170.758224,244.921097 171.216721,241.406189 
	C171.446732,240.981323 171.792236,240.960327 171.792236,240.960327 
	C171.484802,244.181870 171.177368,247.403397 170.585571,250.863068 
z"/>
<path fill="#0F4CB1" opacity="1.000000" stroke="none" 
	d="
M389.170868,321.696045 
	C388.704132,319.287445 388.447998,316.561432 388.291443,313.407043 
	C388.721161,315.778656 389.051300,318.578644 389.170868,321.696045 
z"/>
<path fill="#255CBA" opacity="1.000000" stroke="none" 
	d="
M143.697937,130.063751 
	C141.968536,131.723190 139.863235,133.384827 137.404358,135.046875 
	C139.141190,133.386826 141.231628,131.726395 143.697937,130.063751 
z"/>
<path fill="#114CAE" opacity="1.000000" stroke="none" 
	d="
M379.268738,222.652359 
	C378.759064,220.565125 378.442169,218.157715 378.234802,215.325439 
	C378.716736,217.377762 379.089111,219.854980 379.268738,222.652359 
z"/>
<path fill="#144DAF" opacity="1.000000" stroke="none" 
	d="
M332.774353,321.325012 
	C333.309967,323.400238 333.652374,325.800720 333.918396,328.628723 
	C333.421722,326.587585 333.001434,324.118958 332.774353,321.325012 
z"/>
<path fill="#0F4CB1" opacity="1.000000" stroke="none" 
	d="
M384.076935,273.426575 
	C384.141754,273.002228 384.565582,273.002747 384.777374,273.003296 
	C385.098969,275.456482 385.208740,277.909149 385.136993,280.696472 
	C384.641022,278.637756 384.326569,276.244354 384.076935,273.426575 
z"/>
<path fill="#2257B6" opacity="1.000000" stroke="none" 
	d="
M277.258057,319.816956 
	C278.056946,317.326050 279.178802,314.707977 280.637848,311.938416 
	C279.843719,314.421204 278.712402,317.055511 277.258057,319.816956 
z"/>
<path fill="#1B53B5" opacity="1.000000" stroke="none" 
	d="
M374.131653,178.015762 
	C373.796112,175.885773 373.460541,173.755783 373.240997,171.286560 
	C373.908997,173.039261 374.460999,175.131180 374.781281,177.621918 
	C374.549591,178.020721 374.131653,178.015762 374.131653,178.015762 
z"/>
<path fill="#1351B4" opacity="1.000000" stroke="none" 
	d="
M374.059998,178.412537 
	C374.131653,178.015762 374.549591,178.020721 374.757996,178.025024 
	C375.106812,179.813187 375.247223,181.597061 375.200439,183.676483 
	C374.671631,182.251144 374.329987,180.530243 374.059998,178.412537 
z"/>
<path fill="#114CAE" opacity="1.000000" stroke="none" 
	d="
M171.992920,240.662903 
	C171.792236,240.960327 171.446732,240.981323 171.273972,240.991440 
	C171.165985,239.132339 171.230759,237.263138 171.633972,235.176666 
	C172.046143,236.761429 172.119873,238.563446 171.992920,240.662903 
z"/>
<path fill="#1955B3" opacity="1.000000" stroke="none" 
	d="
M390.177155,329.685791 
	C389.663727,328.259949 389.333740,326.539001 389.076050,324.424988 
	C389.552429,325.818176 389.956512,327.604431 390.177155,329.685791 
z"/>
<path fill="#255CBA" opacity="1.000000" stroke="none" 
	d="
M209.030655,294.458893 
	C210.000183,295.870880 210.961121,297.641510 211.807129,299.779022 
	C210.802185,298.369781 209.912125,296.593658 209.030655,294.458893 
z"/>
<path fill="#255CBA" opacity="1.000000" stroke="none" 
	d="
M132.724304,139.121292 
	C132.055130,140.831665 131.056915,142.627502 129.685776,144.665039 
	C129.312836,144.906769 128.894333,144.755417 128.894318,144.755417 
	C130.061310,142.905853 131.228287,141.056290 132.724304,139.121292 
z"/>
<path fill="#1F55B4" opacity="1.000000" stroke="none" 
	d="
M293.564240,283.881195 
	C293.955505,282.087158 294.640228,280.123749 295.670593,278.034637 
	C295.296722,279.843231 294.577179,281.777527 293.564240,283.881195 
z"/>
<path fill="#2257B6" opacity="1.000000" stroke="none" 
	d="
M273.335999,325.913086 
	C274.082886,324.052032 275.170685,322.098480 276.588013,320.048035 
	C275.837372,321.907593 274.757172,323.864105 273.335999,325.913086 
z"/>
<path fill="#255CBA" opacity="1.000000" stroke="none" 
	d="
M136.676193,135.073669 
	C135.909454,136.321899 134.784805,137.586319 133.352631,138.946838 
	C134.136154,137.725250 135.227203,136.407562 136.676193,135.073669 
z"/>
<path fill="#1955B3" opacity="1.000000" stroke="none" 
	d="
M152.369354,368.988098 
	C153.439026,367.999359 154.864899,367.004456 156.632172,365.970856 
	C155.557571,366.948730 154.141571,367.965302 152.369354,368.988098 
z"/>
<path fill="#114CAE" opacity="1.000000" stroke="none" 
	d="
M378.183105,210.727631 
	C377.682831,209.278900 377.341064,207.540527 377.249023,205.410812 
	C377.498779,205.019485 377.861145,205.035294 377.861145,205.035294 
	C378.021301,206.836197 378.181458,208.637085 378.183105,210.727631 
z"/>
<path fill="#255CBA" opacity="1.000000" stroke="none" 
	d="
M211.955597,301.283447 
	C212.567184,302.080597 213.185745,303.219360 213.727386,304.706512 
	C213.087830,303.911621 212.525177,302.768372 211.955597,301.283447 
z"/>
<path fill="#255CBA" opacity="1.000000" stroke="none" 
	d="
M197.037003,266.196777 
	C197.619156,267.001526 198.193954,268.148499 198.700867,269.618103 
	C198.098526,268.806824 197.564087,267.672882 197.037003,266.196777 
z"/>
<path fill="#1F55B4" opacity="1.000000" stroke="none" 
	d="
M284.486755,303.832977 
	C284.604614,303.032349 284.995209,302.082001 285.705902,301.030701 
	C285.603851,301.847565 285.181702,302.765411 284.486755,303.832977 
z"/>
<path fill="#2257B6" opacity="1.000000" stroke="none" 
	d="
M268.263062,329.938965 
	C268.742615,329.324524 269.551361,328.685150 270.683990,328.018585 
	C270.202637,328.632294 269.397430,329.273163 268.263062,329.938965 
z"/>
<path fill="#2257B6" opacity="1.000000" stroke="none" 
	d="
M266.312744,331.825745 
	C266.471130,331.275116 266.897919,330.617767 267.654846,329.946381 
	C267.516998,330.527893 267.049072,331.123444 266.312744,331.825745 
z"/>
<path fill="#1955B3" opacity="1.000000" stroke="none" 
	d="
M391.932495,348.827820 
	C391.683899,348.064911 391.431580,346.951569 391.275635,345.483704 
	C391.557587,346.245239 391.743134,347.361328 391.932495,348.827820 
z"/>
<path fill="#1F55B4" opacity="1.000000" stroke="none" 
	d="
M301.133179,266.735840 
	C301.088135,266.031647 301.243958,265.051941 301.672546,263.945923 
	C301.741547,264.699829 301.537781,265.580109 301.133179,266.735840 
z"/>
<path fill="#114CAE" opacity="1.000000" stroke="none" 
	d="
M325.960938,245.151550 
	C326.339844,245.470444 326.611755,245.981293 326.786438,246.793182 
	C326.410767,246.510635 326.132385,245.927063 325.960938,245.151550 
z"/>
<path fill="#1955B3" opacity="1.000000" stroke="none" 
	d="
M344.258423,368.216919 
	C344.645233,368.152252 345.226868,368.286530 345.911072,368.710602 
	C345.493500,368.805542 344.973419,368.610718 344.258423,368.216919 
z"/>
<path fill="#1955B3" opacity="1.000000" stroke="none" 
	d="
M138.106140,371.282166 
	C138.157883,371.161682 138.331497,371.113617 138.767258,371.131531 
	C139.029404,371.197540 138.648682,371.371490 138.648682,371.371490 
	C138.648682,371.371490 138.227997,371.354584 138.106140,371.282166 
z"/>
<path fill="#1955B3" opacity="1.000000" stroke="none" 
	d="
M159.361938,361.900452 
	C159.290039,361.757294 159.373520,361.434601 159.699066,360.996155 
	C159.863495,361.192627 159.722214,361.472809 159.361938,361.900452 
z"/>
<path fill="#1955B3" opacity="1.000000" stroke="none" 
	d="
M158.176712,363.829651 
	C158.135788,363.663452 158.305893,363.367798 158.730194,362.996033 
	C158.852661,363.231384 158.653793,363.491455 158.176712,363.829651 
z"/>
<path fill="#1955B3" opacity="1.000000" stroke="none" 
	d="
M157.358337,364.921936 
	C157.276611,364.762024 157.350830,364.436188 157.688721,364.038635 
	C157.866882,364.263550 157.720840,364.526611 157.358337,364.921936 
z"/>
<path fill="#1955B3" opacity="1.000000" stroke="none" 
	d="
M112.080597,368.443085 
	C112.241989,368.358826 112.544243,368.444031 112.919449,368.774719 
	C112.697159,368.956665 112.440178,368.820801 112.080597,368.443085 
z"/>
<path fill="#1955B3" opacity="1.000000" stroke="none" 
	d="
M343.165833,367.304626 
	C343.310242,367.254425 343.602295,367.359589 343.950989,367.709351 
	C343.742981,367.836060 343.511597,367.671387 343.165833,367.304626 
z"/>
<path fill="#2257B6" opacity="1.000000" stroke="none" 
	d="
M271.204010,327.889465 
	C271.163910,327.719299 271.336273,327.431458 271.760437,327.079651 
	C271.880707,327.320526 271.682129,327.572571 271.204010,327.889465 
z"/>
<path fill="#2257B6" opacity="1.000000" stroke="none" 
	d="
M272.227356,326.892548 
	C272.177490,326.718597 272.339172,326.424957 272.753082,326.063080 
	C272.891510,326.308777 272.702759,326.568146 272.227356,326.892548 
z"/>
<path fill="#255CBA" opacity="1.000000" stroke="none" 
	d="
M214.181976,306.172729 
	C214.439285,305.988831 214.704971,306.146606 214.858063,306.712585 
	C214.643555,306.766724 214.458527,306.564575 214.181976,306.172729 
z"/>
<path fill="#1A52B0" opacity="1.000000" stroke="none" 
	d="
M229.856873,213.856064 
	C229.679504,213.874695 229.395874,213.695312 229.129715,213.254120 
	C229.365723,213.198441 229.566864,213.420349 229.856873,213.856064 
z"/>
<path fill="#1351B4" opacity="1.000000" stroke="none" 
	d="
M377.788635,204.842621 
	C377.861145,205.035294 377.498779,205.019485 377.317627,205.011932 
	C377.120697,204.828491 377.104980,204.652618 377.171082,204.224777 
	C377.449432,204.169662 377.603882,204.395386 377.788635,204.842621 
z"/>
<path fill="#1351B4" opacity="1.000000" stroke="none" 
	d="
M375.019409,185.753922 
	C374.850983,185.709686 374.697235,185.416870 374.775269,185.066040 
	C375.007019,185.008057 375.034058,185.505341 375.019409,185.753922 
z"/>
<path fill="#144DAF" opacity="1.000000" stroke="none" 
	d="
M128.870026,145.039368 
	C128.894333,144.755417 129.312836,144.906769 129.522995,144.980423 
	C129.821182,145.403030 129.702591,145.654724 129.154541,145.847961 
	C128.903015,145.698944 128.874359,145.511139 128.870026,145.039368 
z"/>
</svg>